<?xml version="1.0" encoding="UTF-8" standalone="no"?>
<!-- Created with Inkscape (http://www.inkscape.org/) -->

<svg
   xmlns:dc="http://purl.org/dc/elements/1.1/"
   xmlns:cc="http://creativecommons.org/ns#"
   xmlns:rdf="http://www.w3.org/1999/02/22-rdf-syntax-ns#"
   xmlns:svg="http://www.w3.org/2000/svg"
   xmlns="http://www.w3.org/2000/svg"
   xmlns:sodipodi="http://sodipodi.sourceforge.net/DTD/sodipodi-0.dtd"
   xmlns:inkscape="http://www.inkscape.org/namespaces/inkscape"
   width="512"
   height="512"
   id="svg3833"
   version="1.1"
   inkscape:version="0.48.4 r9939"
   sodipodi:docname="WorldsVanishingVoices.svg"
   inkscape:export-filename="C:\Users\hherrero\WorldsVanishingVoices29.png"
   inkscape:export-xdpi="5.0976562"
   inkscape:export-ydpi="5.0976562">
  <defs
     id="defs3835" />
  <sodipodi:namedview
     id="base"
     pagecolor="#ffffff"
     bordercolor="#666666"
     borderopacity="1.0"
     inkscape:pageopacity="0.0"
     inkscape:pageshadow="2"
     inkscape:zoom="0.7"
     inkscape:cx="129.19322"
     inkscape:cy="295.05122"
     inkscape:document-units="px"
     inkscape:current-layer="layer1"
     showgrid="false"
     inkscape:snap-page="true"
     inkscape:object-nodes="true"
     inkscape:window-width="1680"
     inkscape:window-height="988"
     inkscape:window-x="-8"
     inkscape:window-y="-8"
     inkscape:window-maximized="1"
     inkscape:object-paths="true" />
  <metadata
     id="metadata3838">
    <rdf:RDF>
      <cc:Work
         rdf:about="">
        <dc:format>image/svg+xml</dc:format>
        <dc:type
           rdf:resource="http://purl.org/dc/dcmitype/StillImage" />
        <dc:title></dc:title>
      </cc:Work>
    </rdf:RDF>
  </metadata>
  <g
     inkscape:label="Capa 1"
     inkscape:groupmode="layer"
     id="layer1"
     transform="translate(0,-540.36218)">
    <g
       id="g3177"
       transform="translate(2.8571429,0)">
      <path
         inkscape:connector-curvature="0"
         id="rect3149"
         d="m 111.08936,540.36218 c -1.54857,0.0818 -3.02898,0.16641 -4.74769,0.25071 -17.872676,0.87661 -32.7156,4.59293 -47.179302,11.8144 -11.419085,5.70136 -18.843905,11.07543 -28.345174,20.52635 -15.930426,15.84613 -25.4745757,33.93454 -30.30380233,57.44246 -1.1566644,5.63036 -1.59994127,9.58907 -1.99001737,17.54926 -0.090109,1.84646 -0.1797859,3.42784 -0.2663124,5.07674 l 0,288.57551 c 0.87948999,14.9817 2.45652658,23.72607 6.2519867,35.23951 6.4952924,19.7036 17.6816064,36.33718 32.9674774,49.04388 20.206627,16.7972 41.493052,24.6491 71.622834,26.4336 0.29203,0.018 0.4271,0.031 0.6895,0.048 l 288.93584,0 c 0.26363,-0.016 0.3958,-0.03 0.68944,-0.048 25.13757,-1.4887 43.91581,-7.2499 61.39104,-18.8342 22.8527,-15.1487 38.52398,-37.34403 45.39302,-64.30541 2.51189,-9.85941 3.32423,-15.48889 4.01126,-27.65573 0.0232,-0.40976 0.0411,-0.61607 0.0627,-0.97147 l 0,-287.60403 c -0.004,-0.1264 -0.011,-0.23277 -0.0156,-0.36039 -0.5477,-14.86271 -2.15506,-24.17684 -6.39295,-37.10412 -9.16004,-27.94217 -28.70328,-50.34553 -55.23314,-63.31833 -14.8327,-7.25304 -28.56856,-10.58637 -48.80885,-11.79874 l -288.73216,0 z"
         style="fill:#ffffff;fill-opacity:1;fill-rule:nonzero;stroke:none" />
      <g
         transform="matrix(0.94059952,0,0,0.94059952,-95.617387,398.41558)"
         id="g3154">
        <path
           style="fill:#4c516d;fill-opacity:1;fill-rule:nonzero;stroke:none"
           d="m 284.31428,193.97542 c -25.90818,0 -46.91973,20.99552 -46.91973,46.90317 0,25.90818 21.01155,46.92026 46.91973,46.92026 25.90819,0 46.90317,-21.01208 46.90317,-46.92026 0,-25.90765 -20.99498,-46.90317 -46.90317,-46.90317 z m 18.22355,58.3454 c 7.98557,0 14.46542,6.47985 14.46542,14.46488 0,7.98503 -6.47985,14.46542 -14.46542,14.46542 -7.98503,0 -14.46541,-6.48039 -14.46541,-14.46542 0,-7.98503 6.48038,-14.46488 14.46541,-14.46488 z m 69.50274,3.47431 c -7.72793,0 -15.34736,0.47144 -22.83315,1.36941 -7.61248,28.63846 -35.81424,51.17656 -65.86167,50.6784 -11.24126,-0.11492 -22.05758,-3.42941 -31.5697,-9.03694 -32.81083,17.34321 -73.58959,64.22446 -86.67384,115.48761 l 18.9585,5.94641 c -1.09521,8.24641 -1.67034,16.65905 -1.67034,25.20531 0,53.13874 21.86516,101.18362 57.0754,135.61508 l 65.07647,-45.65027 c -17.58909,-22.93845 -28.49628,-54.77541 -28.49628,-89.96481 0,-69.88384 58.15405,-120.75793 95.99461,-126.52843 37.84056,-5.77056 31.71081,-4.10797 64.58793,-4.3656 l 24.09032,-36.80816 c -26.46194,-14.02178 -56.64459,-21.94801 -88.67825,-21.94801 z"
           id="path3202-6-1-7-48-5-2-3"
           inkscape:connector-curvature="0"
           sodipodi:nodetypes="ssssssssssscccccsccszccs"
           inkscape:export-filename="C:\Users\hherrero\bitXGSDFG3Hmap.png"
           inkscape:export-xdpi="71.944839"
           inkscape:export-ydpi="71.944839" />
        <path
           style="fill:#ffffff;fill-opacity:1;fill-rule:nonzero;stroke:none"
           d="m 329.32315,424.88491 c -12.15581,0.81352 -20.73093,13.22428 -20.22796,24.85466 -1.87613,14.53758 3.48767,30.06667 -2.9227,43.89655 -11.53951,20.05799 -31.28107,35.32891 -38.10247,58.0557 -4.90893,18.01348 -1.44959,37.84323 7.61836,53.8908 8.05505,9.16469 21.2168,9.7457 32.20203,12.94634 46.65034,9.8804 97.63341,2.6378 137.77182,-23.65309 8.57085,-7.334 8.6676,-19.61915 8.5019,-30.03299 -0.68738,-32.62055 -11.2637,-64.03311 -24.60184,-93.49471 -5.59791,-10.65811 -12.96024,-21.78712 -24.48907,-26.66933 -12.13549,-3.38344 -24.90598,6.82782 -26.18399,18.9553 -1.18607,4.48666 -1.88895,9.11925 -2.62978,13.73314 -10.41224,-17.25235 -18.26203,-37.31408 -35.26049,-49.1914 -3.53791,-2.02686 -7.54406,-3.44865 -11.67581,-3.29097 z"
           id="path4201-82-2-2-12"
           inkscape:connector-curvature="0"
           inkscape:export-filename="C:\Users\hherrero\bitXGSDFG3Hmap.png"
           inkscape:export-xdpi="71.944839"
           inkscape:export-ydpi="71.944839" />
        <path
           style="fill:#c40001;fill-opacity:1;fill-rule:nonzero;stroke:none"
           d="m 360.08307,483.32865 c -43.65014,-78.92666 -32.00479,-26.41169 -34.07655,5.43863 -1.39454,21.44076 -43.09318,51.92915 -43.09318,75.74313 0,10.90292 2.0493,21.29324 5.75505,30.79146 17.73127,6.56751 37.93838,10.29304 59.38983,10.29304 33.9317,0 64.75576,-9.31061 87.57288,-24.47784 1.05993,-5.36273 1.62224,-10.91253 1.62224,-16.60666 0,-26.24492 -17.23899,-87.91764 -35.60578,-102.75775 -13.00942,-10.51111 -3.72446,89.99635 -41.56449,21.57599 z"
           id="path3206-1-5-9-45-7-1-3"
           inkscape:connector-curvature="0"
           sodipodi:nodetypes="ssscscsss"
           inkscape:export-filename="C:\Users\hherrero\bitXGSDFG3Hmap.png"
           inkscape:export-xdpi="71.944839"
           inkscape:export-ydpi="71.944839" />
        <path
           style="fill:#ffffff;fill-opacity:1;fill-rule:nonzero;stroke:none"
           d="m 492.11427,286.88164 c -30.56857,-0.271 -57.97765,24.87017 -62.58726,54.58673 -3.48072,22.20457 6.242,45.42097 23.53497,59.34706 4.64648,3.81373 9.82267,6.98871 15.35056,9.37048 -6.88341,1.19944 -13.77483,2.35077 -20.67908,3.4246 8.27901,39.39705 1.06313,83.11935 -24.50778,114.94509 -13.54125,16.83863 -35.26957,28.4626 -57.2721,25.93117 -7.8065,-2.88582 -18.71957,-1.27 -22.4777,6.99725 -11.76401,26.98469 -24.13255,53.7529 -36.31829,80.57883 46.93096,15.16883 99.292,13.30286 144.8188,-5.76254 -8.13416,-16.76754 -3.55662,-37.77535 8.37575,-51.70786 10.65544,-13.02973 28.24613,-19.52561 44.80789,-16.82634 6.74711,0.85414 13.14678,3.34068 19.17551,6.26391 5.74383,2.28663 11.41658,-1.68745 14.66532,-6.1971 11.46362,-16.4431 21.26598,-34.09472 27.82921,-53.09171 12.78492,-35.8276 15.84552,-75.49618 6.89731,-112.5895 -3.96873,-7.67876 -14.17624,-9.38865 -21.77482,-6.64769 -5.11846,0.79054 -10.215,1.71738 -15.32331,2.57206 17.99906,-16.1395 25.46828,-43.23163 17.62169,-66.29569 -6.58996,-21.22321 -24.62804,-38.59743 -46.55199,-43.21184 -5.0773,-1.23472 -10.33366,-1.80718 -15.58468,-1.68691 z"
           id="path4203-5-6-6-3"
           inkscape:connector-curvature="0"
           inkscape:export-filename="C:\Users\hherrero\bitXGSDFG3Hmap.png"
           inkscape:export-xdpi="71.944839"
           inkscape:export-ydpi="71.944839" />
        <path
           style="fill:#a9ba9d;fill-opacity:1;fill-rule:nonzero;stroke:none"
           d="m 493.1571,304.05648 c -25.90765,0 -46.91974,20.99498 -46.91974,46.90316 0,25.90819 21.01209,46.91974 46.91974,46.91974 25.90818,0 46.90317,-21.01155 46.90317,-46.91974 0,-25.90818 -20.99499,-46.90316 -46.90317,-46.90316 z m 65.51103,107.4363 -91.56835,16.28596 c 0.61255,5.7743 0.9354,11.67474 0.9354,17.67193 0,69.88385 -42.97934,126.54501 -95.99408,126.54501 -4.70367,0 -9.32504,-0.44097 -13.84752,-1.3026 l -27.05952,59.99863 c 13.17725,2.89704 26.85961,4.4097 40.90704,4.4097 20.70474,0 40.62803,-3.30487 59.28026,-9.43783 -0.016,-0.11652 -0.0321,-0.23358 -0.0481,-0.35063 -5.61662,-37.45625 27.08945,-75.34065 64.95941,-75.14876 3.8474,-0.0668 7.70976,0.13523 11.50852,0.70181 6.39753,0.8039 12.51338,2.6811 18.20697,5.4119 22.4852,-31.17363 35.74529,-69.45409 35.74529,-110.82723 0,-11.59136 -1.03213,-22.94059 -3.02317,-33.95789 z"
           id="path3128-5-2-3-1-1-8-4"
           inkscape:connector-curvature="0"
           inkscape:export-filename="C:\Users\hherrero\bitXGSDFG3Hmap.png"
           inkscape:export-xdpi="71.944839"
           inkscape:export-ydpi="71.944839" />
      </g>
    </g>
  </g>
</svg>
