<?xml version="1.0" encoding="utf-8"?>
<!-- Generator: Adobe Illustrator 16.0.0, SVG Export Plug-In . SVG Version: 6.00 Build 0)  -->
<!DOCTYPE svg PUBLIC "-//W3C//DTD SVG 1.1//EN" "http://www.w3.org/Graphics/SVG/1.1/DTD/svg11.dtd">
<svg version="1.1" id="Layer_1" xmlns="http://www.w3.org/2000/svg" xmlns:xlink="http://www.w3.org/1999/xlink" x="0px" y="0px"
	 width="3000px" height="3000px" viewBox="0 0 3000 3000" enable-background="new 0 0 3000 3000" xml:space="preserve">
<g>
	<path fill-rule="evenodd" clip-rule="evenodd" fill="#4C516D" d="M1227.288,1028.997h4.551c3.077,3.346,6.754,5.592,10.763,6.666
		c4.355,1.167,9.057,0.943,13.762-0.763c3.309-1.199,6.626-3.156,9.814-5.903h4.145c13.905,0,25.283,11.379,25.283,25.282v17.361
		h-70.812c4.192-10.305,5.21-24.712,0.922-42.593C1226.236,1029.016,1226.761,1028.997,1227.288,1028.997z"/>
	<path fill-rule="evenodd" clip-rule="evenodd" fill="#4C516D" d="M1227.288,1028.997h4.551c3.077,3.346,6.754,5.592,10.763,6.666
		c4.355,1.167,9.057,0.943,13.762-0.763c3.309-1.199,6.626-3.156,9.814-5.903h4.145c13.905,0,25.283,11.379,25.283,25.282v17.361
		h-70.812c4.192-10.305,5.21-24.712,0.922-42.593C1226.236,1029.016,1226.761,1028.997,1227.288,1028.997z"/>
</g>
<g>
	<path fill-rule="evenodd" clip-rule="evenodd" fill="#4C516D" d="M1222.451,1076.432h4.829c15.402,0,28.005,12.604,28.005,28.005
		v19.23h-103.68v-19.23c0-13.7,9.971-25.185,23.014-27.556c5.08,5.865,10.635,9.741,16.165,11.746
		c5.3,1.922,10.593,2.176,15.493,0.862c4.895-1.312,9.352-4.179,12.986-8.499C1220.415,1079.62,1221.482,1078.098,1222.451,1076.432
		z"/>
	<path fill-rule="evenodd" clip-rule="evenodd" fill="#4C516D" d="M1222.451,1076.432h4.829c15.402,0,28.005,12.604,28.005,28.005
		v19.23h-103.68v-19.23c0-13.7,9.971-25.185,23.014-27.556c5.08,5.865,10.635,9.741,16.165,11.746
		c5.3,1.922,10.593,2.176,15.493,0.862c4.895-1.312,9.352-4.179,12.986-8.499C1220.415,1079.62,1221.482,1078.098,1222.451,1076.432
		z"/>
</g>
<path fill-rule="evenodd" clip-rule="evenodd" fill="#A9BA9D" d="M1221.078,1027.008c18.127,67.65-40.729,83.42-58.854,15.771
	C1178.891,1028.551,1198.033,1021.994,1221.078,1027.008L1221.078,1027.008z M1201.702,1048.825
	c4.23-4.609,9.984-5.407,15.356-4.333C1210.323,1036.729,1203.592,1038.203,1201.702,1048.825L1201.702,1048.825z
	 M1191.152,1051.651c-7.021-8.036-13.594-5.917-15.465,3.926C1180.036,1052.664,1185.472,1050.933,1191.152,1051.651
	L1191.152,1051.651z M1215.663,1056.101c-8.331,11.438-20.88,13.213-33.548,9.466
	C1197.065,1083.763,1211.879,1080.904,1215.663,1056.101z"/>
<path fill-rule="evenodd" clip-rule="evenodd" fill="#A9BA9D" d="M1280.97,994.614c-15.731,58.71-66.81,45.023-51.079-13.687
	C1248.593,977.467,1265.825,980.847,1280.97,994.614L1280.97,994.614z M1236.061,1019.787c8.06-3.486,15.987-1.418,21.156,5.256
	C1255.021,1009.724,1246.311,1005.876,1236.061,1019.787L1236.061,1019.787z M1271.827,1001.443
	c-5.174,1.676-9.854-0.366-13.422-3.406C1259.994,1007.116,1265.573,1009.243,1271.827,1001.443L1271.827,1001.443z
	 M1235.923,991.823c1.535,10.522,7.361,11.973,13.327,3.76C1244.333,996.642,1239.34,995.959,1235.923,991.823z"/>
<g>
	<g>
		<path fill-rule="evenodd" clip-rule="evenodd" fill="#4C516D" d="M1054.428,1043.215c13.01,0.014,23.65,10.665,23.65,23.677
			v16.259h-55.959c-4.439-3.644-9.947-6.029-15.963-6.598c3.465-4.906,5.5-10.894,5.5-17.355c0-5.492-1.471-10.642-4.039-15.075
			c2.063-0.591,4.236-0.908,6.48-0.908c0.094,0.095,0.186,0.189,0.279,0.282c5.09,5.09,12.121,8.238,19.887,8.238
			s14.797-3.148,19.887-8.238C1054.242,1043.403,1054.336,1043.309,1054.428,1043.215z"/>
		<path fill-rule="evenodd" clip-rule="evenodd" fill="#4C516D" d="M1054.428,1043.215c13.01,0.014,23.65,10.665,23.65,23.677
			v16.259h-55.959c-4.439-3.644-9.947-6.029-15.963-6.598c3.465-4.906,5.5-10.894,5.5-17.355c0-5.492-1.471-10.642-4.039-15.075
			c2.063-0.591,4.236-0.908,6.48-0.908c0.094,0.095,0.186,0.189,0.279,0.282c5.09,5.09,12.121,8.238,19.887,8.238
			s14.797-3.148,19.887-8.238C1054.242,1043.403,1054.336,1043.309,1054.428,1043.215z"/>
	</g>
	<path fill-rule="evenodd" clip-rule="evenodd" fill="#4C516D" d="M959.719,1080.42h0.455l0.07,0.072
		c5.451,5.45,12.98,8.821,21.297,8.821c8.314,0,15.846-3.371,21.295-8.821l0.07-0.072h0.455c14.102,0,25.641,11.54,25.641,25.641
		v17.606h-94.924v-17.606C934.078,1091.958,945.617,1080.42,959.719,1080.42z"/>
	<path fill-rule="evenodd" clip-rule="evenodd" fill="#A9BA9D" d="M981.541,1085.313c14.385,0,26.115-11.731,26.115-26.116
		s-11.73-26.117-26.115-26.117s-26.117,11.732-26.117,26.117S967.156,1085.313,981.541,1085.313z"/>
	<path fill-rule="evenodd" clip-rule="evenodd" fill="#A9BA9D" d="M1034.264,999.485c13.324,0,24.125,10.801,24.125,24.124
		c0,13.324-10.801,24.125-24.125,24.125s-24.125-10.801-24.125-24.125C1010.139,1010.286,1020.939,999.485,1034.264,999.485
		L1034.264,999.485z M1034.264,1032.113c-3.709,0-6.717,2.374-6.717,5.302c0,2.929,3.008,5.302,6.717,5.302s6.715-2.373,6.715-5.302
		C1040.979,1034.487,1037.973,1032.113,1034.264,1032.113z"/>
	<path fill-rule="evenodd" clip-rule="evenodd" fill="#C40001" d="M960.58,979.667c5.953,0,11.447,1.591,15.873,4.267l0.049,0.03
		c0.006-0.004,0.012-0.008,0.016-0.012c3.543-2.662,8.248-4.285,13.412-4.285c11.018,0,19.949,7.389,19.949,16.504
		c0,5.178-2.883,9.799-7.393,12.824l3.078,12.237l-10.939-9.019c-1.506,0.301-3.078,0.461-4.695,0.461
		c-2.24,0-4.396-0.306-6.406-0.869c-3.43,4.784-9.082,8.396-15.816,9.913l-3.846,11.482l-7.742-11.002
		c-12.512-1.713-22.041-10.514-22.041-21.114C934.078,989.256,945.943,979.667,960.58,979.667L960.58,979.667z M979.117,985.782
		c4.912,3.888,7.961,9.308,7.961,15.303c0,2.845-0.686,5.56-1.934,8.044c1.518,0.355,3.121,0.547,4.785,0.547
		c0.766,0,1.457-0.032,2.074-0.093c0.637-0.063,1.318-0.167,2.035-0.311l0.002,0.011c0.85-0.169,1.764,0.03,2.482,0.622l3.914,3.228
		l-0.857-3.411l0.004-0.001c-0.297-1.189,0.162-2.488,1.238-3.21c1.924-1.29,3.482-2.906,4.535-4.733
		c0.977-1.693,1.521-3.594,1.521-5.606c0-3.619-1.816-6.933-4.752-9.362c-3.094-2.559-7.404-4.143-12.197-4.143
		C985.814,982.666,982.057,983.833,979.117,985.782L979.117,985.782z M977.443,988.271c-4.285-3.463-10.246-5.605-16.863-5.605
		c-6.619,0-12.58,2.143-16.865,5.605c-4.1,3.314-6.637,7.848-6.637,12.813c0,4.405,1.998,8.472,5.311,11.646
		c3.484,3.338,8.402,5.698,14.021,6.489c0.838,0.081,1.637,0.515,2.158,1.257l4.336,6.162l1.943-5.804
		c0.309-0.989,1.119-1.791,2.203-2.034c5.059-1.14,9.418-3.578,12.473-6.832c2.859-3.045,4.557-6.818,4.557-10.884
		C984.08,996.119,981.543,991.586,977.443,988.271z"/>
</g>
<g>
	<g>
		<path fill-rule="evenodd" clip-rule="evenodd" fill="#A3A5B2" d="M1227.288,1474.887h4.551c3.077,3.346,6.754,5.592,10.763,6.666
			c4.355,1.167,9.057,0.943,13.762-0.763c3.309-1.199,6.626-3.156,9.814-5.903h4.145c13.905,0,25.283,11.379,25.283,25.282v17.362
			h-70.812c4.192-10.305,5.21-24.712,0.922-42.593C1226.236,1474.906,1226.761,1474.887,1227.288,1474.887z"/>
		<path fill-rule="evenodd" clip-rule="evenodd" fill="#A3A5B2" d="M1227.288,1474.887h4.551c3.077,3.346,6.754,5.592,10.763,6.666
			c4.355,1.167,9.057,0.943,13.762-0.763c3.309-1.199,6.626-3.156,9.814-5.903h4.145c13.905,0,25.283,11.379,25.283,25.282v17.362
			h-70.812c4.192-10.305,5.21-24.712,0.922-42.593C1226.236,1474.906,1226.761,1474.887,1227.288,1474.887z"/>
	</g>
	<g>
		<path fill-rule="evenodd" clip-rule="evenodd" fill="#A3A5B2" d="M1222.451,1522.322h4.829c15.402,0,28.005,12.604,28.005,28.004
			v19.23h-103.68v-19.23c0-13.699,9.971-25.184,23.014-27.555c5.08,5.865,10.635,9.74,16.165,11.746
			c5.3,1.922,10.593,2.176,15.493,0.861c4.895-1.311,9.352-4.178,12.986-8.498
			C1220.415,1525.51,1221.482,1523.988,1222.451,1522.322z"/>
		<path fill-rule="evenodd" clip-rule="evenodd" fill="#A3A5B2" d="M1222.451,1522.322h4.829c15.402,0,28.005,12.604,28.005,28.004
			v19.23h-103.68v-19.23c0-13.699,9.971-25.184,23.014-27.555c5.08,5.865,10.635,9.74,16.165,11.746
			c5.3,1.922,10.593,2.176,15.493,0.861c4.895-1.311,9.352-4.178,12.986-8.498
			C1220.415,1525.51,1221.482,1523.988,1222.451,1522.322z"/>
	</g>
	<path fill-rule="evenodd" clip-rule="evenodd" fill="#A3A5B2" d="M1221.078,1472.898c18.127,67.651-40.729,83.42-58.854,15.771
		C1178.891,1474.441,1198.033,1467.884,1221.078,1472.898L1221.078,1472.898z M1201.702,1494.715
		c4.23-4.609,9.984-5.407,15.356-4.333C1210.323,1482.62,1203.592,1484.093,1201.702,1494.715L1201.702,1494.715z
		 M1191.152,1497.542c-7.021-8.036-13.594-5.917-15.465,3.925C1180.036,1498.554,1185.472,1496.823,1191.152,1497.542
		L1191.152,1497.542z M1215.663,1501.99c-8.331,11.438-20.88,13.213-33.548,9.467
		C1197.065,1529.652,1211.879,1526.795,1215.663,1501.99z"/>
	<path fill-rule="evenodd" clip-rule="evenodd" fill="#A3A5B2" d="M1280.97,1440.504c-15.731,58.71-66.81,45.023-51.079-13.687
		C1248.593,1423.357,1265.825,1426.737,1280.97,1440.504L1280.97,1440.504z M1236.061,1465.677
		c8.06-3.486,15.987-1.418,21.156,5.256C1255.021,1455.614,1246.311,1451.766,1236.061,1465.677L1236.061,1465.677z
		 M1271.827,1447.333c-5.174,1.676-9.854-0.366-13.422-3.406C1259.994,1453.006,1265.573,1455.133,1271.827,1447.333
		L1271.827,1447.333z M1235.923,1437.713c1.535,10.522,7.361,11.973,13.327,3.76
		C1244.333,1442.532,1239.34,1441.849,1235.923,1437.713z"/>
</g>
<g>
	<g>
		<path fill-rule="evenodd" clip-rule="evenodd" fill="#A3A5B2" d="M1054.428,1489.105c13.01,0.014,23.65,10.665,23.65,23.676v16.26
			h-55.959c-4.439-3.645-9.947-6.029-15.963-6.598c3.465-4.906,5.5-10.895,5.5-17.355c0-5.493-1.471-10.642-4.039-15.076
			c2.063-0.591,4.236-0.908,6.48-0.908c0.094,0.095,0.186,0.189,0.279,0.282c5.09,5.09,12.121,8.238,19.887,8.238
			s14.797-3.148,19.887-8.238C1054.242,1489.293,1054.336,1489.199,1054.428,1489.105z"/>
		<path fill-rule="evenodd" clip-rule="evenodd" fill="#A3A5B2" d="M1054.428,1489.105c13.01,0.014,23.65,10.665,23.65,23.676v16.26
			h-55.959c-4.439-3.645-9.947-6.029-15.963-6.598c3.465-4.906,5.5-10.895,5.5-17.355c0-5.493-1.471-10.642-4.039-15.076
			c2.063-0.591,4.236-0.908,6.48-0.908c0.094,0.095,0.186,0.189,0.279,0.282c5.09,5.09,12.121,8.238,19.887,8.238
			s14.797-3.148,19.887-8.238C1054.242,1489.293,1054.336,1489.199,1054.428,1489.105z"/>
	</g>
	<path fill-rule="evenodd" clip-rule="evenodd" fill="#A3A5B2" d="M959.719,1526.311h0.455l0.07,0.072
		c5.451,5.449,12.98,8.82,21.297,8.82c8.314,0,15.846-3.371,21.295-8.82l0.07-0.072h0.455c14.102,0,25.641,11.539,25.641,25.641
		v17.605h-94.924v-17.605C934.078,1537.848,945.617,1526.311,959.719,1526.311z"/>
	<path fill-rule="evenodd" clip-rule="evenodd" fill="#A3A5B2" d="M981.541,1531.203c14.385,0,26.115-11.73,26.115-26.115
		c0-14.385-11.73-26.118-26.115-26.118s-26.117,11.732-26.117,26.118C955.424,1519.473,967.156,1531.203,981.541,1531.203z"/>
	<path fill-rule="evenodd" clip-rule="evenodd" fill="#A3A5B2" d="M1034.264,1445.375c13.324,0,24.125,10.801,24.125,24.124
		c0,13.324-10.801,24.125-24.125,24.125s-24.125-10.801-24.125-24.125C1010.139,1456.176,1020.939,1445.375,1034.264,1445.375
		L1034.264,1445.375z M1034.264,1478.003c-3.709,0-6.717,2.374-6.717,5.302c0,2.929,3.008,5.302,6.717,5.302
		s6.715-2.373,6.715-5.302C1040.979,1480.377,1037.973,1478.003,1034.264,1478.003z"/>
	<path fill-rule="evenodd" clip-rule="evenodd" fill="#A3A5B2" d="M983.523,1457.696c-3.797,4.498-9.082,8.396-15.816,9.913
		l-3.846,11.482l-7.742-11.002c-12.512-1.713-22.041-10.514-22.041-21.114c0-11.829,11.865-21.418,26.502-21.418l0,0
		c5.953,0,11.509,1.491,15.873,4.267c3.224,2.051,8.681,7.013,9.896,11.646C988.1,1448.137,986.18,1454.549,983.523,1457.696z"/>
	<path fill-rule="evenodd" clip-rule="evenodd" fill="#A3A5B2" d="M1009.879,1442.061c0-9.115-8.932-16.504-19.949-16.504
		c-3.728,0-7.209,0.855-10.193,2.328c1.146,0.704,2.229,1.476,3.235,2.307c5.11,4.219,8.271,9.988,8.271,16.31
		c0,4.337-1.5,8.405-4.079,11.894c0.905,0.104,1.827,0.17,2.767,0.17c1.617,0,3.189-0.16,4.695-0.461l10.939,9.019l-3.078-12.237
		C1006.996,1451.86,1009.879,1447.239,1009.879,1442.061z"/>
</g>
<g>
	<path fill-rule="evenodd" clip-rule="evenodd" fill="#C40001" d="M1586.661,1214.012c11.722,0,18.983-3.127,25.823-6.072
		c6.359-2.739,12.371-5.328,21.163-5.328c8.485,0,14.619,3.546,21.376,7.452c7.896,4.565,16.688,9.647,31.241,9.647
		c6.872,0,12.453-2.883,18.406-5.958c7.159-3.698,14.832-7.661,25.99-7.661v3c-10.446,0-17.778,3.787-24.619,7.321
		c-6.293,3.251-12.192,6.299-19.777,6.299c-15.344,0-24.51-5.3-32.741-10.059c-6.386-3.691-12.18-7.042-19.876-7.042
		c-8.181,0-13.914,2.47-19.979,5.081c-7.117,3.065-14.674,6.319-27.007,6.319V1214.012L1586.661,1214.012z M1586.661,1255.413
		c11.722,0,18.983-3.127,25.823-6.072c6.359-2.739,12.371-5.328,21.163-5.328l0.327,0.002c-1.302,0.969-2.53,2.02-3.682,3.143
		c-6.466,0.563-11.424,2.697-16.625,4.938c-7.117,3.064-14.674,6.318-27.007,6.318V1255.413L1586.661,1255.413z M1689.928,1260.837
		c5.27-0.79,9.883-3.172,14.743-5.683c7.159-3.699,14.832-7.662,25.99-7.662v3c-10.446,0-17.778,3.787-24.619,7.322
		c-4.971,2.567-9.695,5.008-15.199,5.92C1690.575,1262.749,1690.27,1261.783,1689.928,1260.837L1689.928,1260.837z
		 M1586.661,1241.613v3c12.333,0,19.89-3.255,27.007-6.319c6.065-2.612,11.799-5.081,19.979-5.081c5.714,0,10.38,1.847,15.017,4.309
		c1.675-0.331,3.349-0.54,5.013-0.633c-6.24-3.588-12.11-6.676-20.029-6.676c-8.792,0-14.804,2.589-21.163,5.327
		C1605.645,1238.485,1598.383,1241.613,1586.661,1241.613L1586.661,1241.613z M1681,1247.079c1.038,1.001,2.021,2.066,2.939,3.191
		c0.759,0.027,1.533,0.043,2.325,0.043c7.585,0,13.484-3.048,19.777-6.299c6.841-3.534,14.173-7.321,24.619-7.321v-3.001
		c-11.158,0-18.831,3.964-25.99,7.662c-5.953,3.075-11.534,5.958-18.406,5.958C1684.421,1247.312,1682.669,1247.231,1681,1247.079
		L1681,1247.079z M1586.661,1227.812v3c12.333,0,19.89-3.254,27.007-6.318c6.065-2.612,11.799-5.081,19.979-5.081
		c7.696,0,13.49,3.35,19.876,7.041c8.231,4.76,17.397,10.059,32.741,10.059c7.585,0,13.484-3.047,19.777-6.298
		c6.841-3.534,14.173-7.322,24.619-7.322v-3c-11.158,0-18.831,3.964-25.99,7.662c-5.953,3.075-11.534,5.958-18.406,5.958
		c-14.554,0-23.346-5.083-31.241-9.647c-6.757-3.907-12.891-7.452-21.376-7.452c-8.792,0-14.804,2.588-21.163,5.327
		C1605.645,1224.685,1598.383,1227.812,1586.661,1227.812z"/>
	<g>
		<path fill-rule="evenodd" clip-rule="evenodd" fill="#4C516D" d="M1682.873,1297.504c14.953,1.211,26.814,13.827,26.814,29.076
			v20.031h-108v-20.031c0-15.253,11.864-27.868,26.819-29.076c2.596,2.901,5.631,5.357,8.971,7.287l-0.004,0.007
			c8.078,4.663,17.93,6.247,27.639,3.646C1672.241,1306.534,1678.308,1302.635,1682.873,1297.504z"/>
		<path fill-rule="evenodd" clip-rule="evenodd" fill="#4C516D" d="M1682.873,1297.504c14.953,1.211,26.814,13.827,26.814,29.076
			v20.031h-108v-20.031c0-15.253,11.864-27.868,26.819-29.076c2.596,2.901,5.631,5.357,8.971,7.287l-0.004,0.007
			c8.078,4.663,17.93,6.247,27.639,3.646C1672.241,1306.534,1678.308,1302.635,1682.873,1297.504z"/>
	</g>
	<path fill-rule="evenodd" clip-rule="evenodd" fill="#A9BA9D" d="M1647.295,1241.938c17.3-4.636,35.081,5.631,39.717,22.931
		c4.635,17.299-5.631,35.081-22.931,39.716c-17.299,4.636-35.081-5.631-39.716-22.93
		C1619.729,1264.355,1629.996,1246.574,1647.295,1241.938L1647.295,1241.938z M1655.688,1281.812c-6.361,0-11.52,4.071-11.52,9.095
		c0,5.022,5.158,9.095,11.52,9.095c6.362,0,11.521-4.072,11.521-9.095C1667.208,1285.883,1662.05,1281.812,1655.688,1281.812z"/>
</g>
<g>
	<path fill-rule="evenodd" clip-rule="evenodd" fill="#A3A5B2" d="M1586.661,1659.902c11.722,0,18.983-3.127,25.823-6.072
		c6.359-2.739,12.371-5.328,21.163-5.328c8.485,0,14.619,3.546,21.376,7.452c7.896,4.565,16.688,9.647,31.241,9.647
		c6.872,0,12.453-2.883,18.406-5.958c7.159-3.698,14.832-7.661,25.99-7.661v3c-10.446,0-17.778,3.787-24.619,7.321
		c-6.293,3.251-12.192,6.299-19.777,6.299c-15.344,0-24.51-5.3-32.741-10.059c-6.386-3.691-12.18-7.042-19.876-7.042
		c-8.181,0-13.914,2.47-19.979,5.081c-7.117,3.065-14.674,6.319-27.007,6.319V1659.902L1586.661,1659.902z M1586.661,1701.303
		c11.722,0,18.983-3.127,25.823-6.072c6.359-2.739,12.371-5.328,21.163-5.328l0.327,0.002c-1.302,0.969-2.53,2.02-3.682,3.143
		c-6.466,0.563-11.424,2.697-16.625,4.938c-7.117,3.064-14.674,6.318-27.007,6.318V1701.303L1586.661,1701.303z M1689.928,1706.728
		c5.27-0.79,9.883-3.172,14.743-5.683c7.159-3.699,14.832-7.662,25.99-7.662v3c-10.446,0-17.778,3.787-24.619,7.322
		c-4.971,2.567-9.695,5.008-15.199,5.92C1690.575,1708.639,1690.27,1707.673,1689.928,1706.728L1689.928,1706.728z
		 M1586.661,1687.503v3c12.333,0,19.89-3.255,27.007-6.319c6.065-2.612,11.799-5.081,19.979-5.081c5.714,0,10.38,1.847,15.017,4.309
		c1.675-0.331,3.349-0.54,5.013-0.633c-6.24-3.588-12.11-6.676-20.029-6.676c-8.792,0-14.804,2.589-21.163,5.327
		C1605.645,1684.375,1598.383,1687.503,1586.661,1687.503L1586.661,1687.503z M1681,1692.969c1.038,1.001,2.021,2.066,2.939,3.191
		c0.759,0.027,1.533,0.043,2.325,0.043c7.585,0,13.484-3.048,19.777-6.299c6.841-3.534,14.173-7.321,24.619-7.321v-3.001
		c-11.158,0-18.831,3.964-25.99,7.662c-5.953,3.075-11.534,5.958-18.406,5.958C1684.421,1693.202,1682.669,1693.121,1681,1692.969
		L1681,1692.969z M1586.661,1673.702v3c12.333,0,19.89-3.254,27.007-6.318c6.065-2.612,11.799-5.081,19.979-5.081
		c7.696,0,13.49,3.35,19.876,7.041c8.231,4.76,17.397,10.059,32.741,10.059c7.585,0,13.484-3.047,19.777-6.298
		c6.841-3.534,14.173-7.322,24.619-7.322v-3c-11.158,0-18.831,3.964-25.99,7.662c-5.953,3.075-11.534,5.958-18.406,5.958
		c-14.554,0-23.346-5.083-31.241-9.647c-6.757-3.907-12.891-7.452-21.376-7.452c-8.792,0-14.804,2.588-21.163,5.327
		C1605.645,1670.575,1598.383,1673.702,1586.661,1673.702z"/>
	<g>
		<path fill-rule="evenodd" clip-rule="evenodd" fill="#A3A5B2" d="M1682.873,1743.395c14.953,1.211,26.814,13.826,26.814,29.076
			v20.031h-108v-20.031c0-15.254,11.864-27.869,26.819-29.076c2.596,2.9,5.631,5.357,8.971,7.287l-0.004,0.006
			c8.078,4.664,17.93,6.248,27.639,3.646C1672.241,1752.424,1678.308,1748.525,1682.873,1743.395z"/>
		<path fill-rule="evenodd" clip-rule="evenodd" fill="#A3A5B2" d="M1682.873,1743.395c14.953,1.211,26.814,13.826,26.814,29.076
			v20.031h-108v-20.031c0-15.254,11.864-27.869,26.819-29.076c2.596,2.9,5.631,5.357,8.971,7.287l-0.004,0.006
			c8.078,4.664,17.93,6.248,27.639,3.646C1672.241,1752.424,1678.308,1748.525,1682.873,1743.395z"/>
	</g>
	<path fill-rule="evenodd" clip-rule="evenodd" fill="#A3A5B2" d="M1647.295,1687.828c17.3-4.636,35.081,5.631,39.717,22.931
		c4.635,17.298-5.631,35.081-22.931,39.716c-17.299,4.635-35.081-5.631-39.716-22.93
		C1619.729,1710.245,1629.996,1692.464,1647.295,1687.828L1647.295,1687.828z M1655.688,1727.701c-6.361,0-11.52,4.072-11.52,9.096
		c0,5.021,5.158,9.094,11.52,9.094c6.362,0,11.521-4.072,11.521-9.094C1667.208,1731.773,1662.05,1727.701,1655.688,1727.701z"/>
</g>
<g>
	<path fill-rule="evenodd" clip-rule="evenodd" fill="#4C516D" d="M1880.135,1039.832c11.81,0.235,21.398,9.966,21.398,21.829v2.721
		h-80.83v-2.721c0-11.863,9.588-21.594,21.397-21.829c0.153,0.161,0.308,0.319,0.464,0.477c10.19,10.19,26.917,10.19,37.107,0
		C1879.828,1040.151,1879.982,1039.993,1880.135,1039.832z"/>
	<path fill-rule="evenodd" clip-rule="evenodd" fill="#A9BA9D" d="M1861.118,999.516c12.282,0,22.239,9.957,22.239,22.239
		s-9.957,22.239-22.239,22.239s-22.239-9.957-22.239-22.239S1848.836,999.516,1861.118,999.516L1861.118,999.516z
		 M1861.118,1027.501c-4.421,0-8.005,2.83-8.005,6.319c0,3.491,3.584,6.32,8.005,6.32s8.005-2.829,8.005-6.32
		C1869.123,1030.331,1865.539,1027.501,1861.118,1027.501z"/>
	<path fill-rule="evenodd" clip-rule="evenodd" fill="#4C516D" d="M1810.322,1068.382h101.592h0.68c3,0,5.455,2.454,5.455,5.454l0,0
		c0,3-2.455,5.454-5.455,5.454h-1.621l-3.831,44.377h-92.047l-3.831-44.377h-1.622c-3,0-5.454-2.454-5.454-5.454l0,0
		c0-3,2.454-5.454,5.454-5.454H1810.322z"/>
	<path fill-rule="evenodd" clip-rule="evenodd" fill="#C40001" d="M1920.156,982.667c-7.025,0-13.353,2.366-17.899,6.192
		c-4.406,3.707-7.132,8.797-7.132,14.39c0,1.699,0.247,3.341,0.712,4.9c0.491,1.646,1.213,3.203,2.133,4.643
		c0.699,1.098,0.593,2.479-0.167,3.448l-3.635,4.993l9.451-1.6c0.777-0.13,1.535,0.054,2.145,0.457
		c2.038,1.181,4.305,2.12,6.74,2.764c2.396,0.635,4.967,0.977,7.652,0.977c7.025,0,13.352-2.366,17.898-6.192
		c4.407-3.707,7.133-8.797,7.133-14.39s-2.726-10.683-7.133-14.39C1933.508,985.033,1927.182,982.667,1920.156,982.667
		L1920.156,982.667z M1920.156,979.667c15.481,0,28.031,10.559,28.031,23.582s-12.55,23.582-28.031,23.582
		c-5.968,0-11.499-1.57-16.045-4.244l-16.676,2.823l8.015-11.013c-2.122-3.319-3.325-7.115-3.325-11.148
		C1892.125,990.226,1904.674,979.667,1920.156,979.667z"/>
	<g>
		<path fill-rule="evenodd" clip-rule="evenodd" fill="#C40001" d="M1920.361,1017.215c1.559,0,2.829-1.271,2.829-2.829
			c0-1.559-1.271-2.829-2.829-2.829s-2.829,1.271-2.829,2.829C1917.532,1015.943,1918.803,1017.215,1920.361,1017.215z"/>
		<path fill-rule="evenodd" clip-rule="evenodd" fill="#C40001" d="M1920.361,989.283L1920.361,989.283
			c1.039,0,1.889,0.85,1.889,1.889v16.171c0,1.039-0.85,1.889-1.889,1.889l0,0c-1.039,0-1.889-0.85-1.889-1.889v-16.171
			C1918.473,990.133,1919.322,989.283,1920.361,989.283z"/>
	</g>
</g>
<g>
	<path fill-rule="evenodd" clip-rule="evenodd" fill="#A3A5B2" d="M1880.135,1485.721c11.81,0.236,21.398,9.967,21.398,21.83v2.721
		h-80.83v-2.721c0-11.863,9.588-21.593,21.397-21.83c0.153,0.162,0.308,0.32,0.464,0.477c10.19,10.191,26.917,10.191,37.107,0
		C1879.828,1486.042,1879.982,1485.883,1880.135,1485.721z"/>
	<path fill-rule="evenodd" clip-rule="evenodd" fill="#A3A5B2" d="M1861.118,1445.405c12.282,0,22.239,9.957,22.239,22.24
		c0,12.281-9.957,22.238-22.239,22.238s-22.239-9.957-22.239-22.238C1838.879,1455.362,1848.836,1445.405,1861.118,1445.405
		L1861.118,1445.405z M1861.118,1473.391c-4.421,0-8.005,2.83-8.005,6.318c0,3.492,3.584,6.32,8.005,6.32s8.005-2.828,8.005-6.32
		C1869.123,1476.221,1865.539,1473.391,1861.118,1473.391z"/>
	<path fill-rule="evenodd" clip-rule="evenodd" fill="#A3A5B2" d="M1810.322,1514.271h101.592h0.68c3,0,5.455,2.453,5.455,5.453l0,0
		c0,3-2.455,5.455-5.455,5.455h-1.621l-3.831,44.377h-92.047l-3.831-44.377h-1.622c-3,0-5.454-2.455-5.454-5.455l0,0
		c0-3,2.454-5.453,5.454-5.453H1810.322z"/>
	<path fill-rule="evenodd" clip-rule="evenodd" fill="#A3A5B2" d="M1920.156,1425.557c-15.482,0-28.031,10.559-28.031,23.582
		c0,4.033,1.203,7.828,3.325,11.148l-8.015,11.012l16.676-2.822c4.546,2.674,10.077,4.244,16.045,4.244
		c15.481,0,28.031-10.559,28.031-23.582S1935.638,1425.557,1920.156,1425.557z M1918.473,1437.061c0-1.039,0.85-1.889,1.889-1.889
		s1.889,0.85,1.889,1.889v16.172c0,1.039-0.85,1.889-1.889,1.889s-1.889-0.85-1.889-1.889V1437.061z M1920.361,1463.104
		c-1.559,0-2.829-1.271-2.829-2.828c0-1.559,1.271-2.83,2.829-2.83s2.829,1.271,2.829,2.83
		C1923.19,1461.833,1921.92,1463.104,1920.361,1463.104z"/>
</g>
<g>
	<g>
		<path fill="#4C516D" d="M1706.222,1029.012c13.518,0.45,24.438,11.646,24.438,25.268v17.36h-64.885
			c3.938-7.411,5.189-16.267,2.85-25.001l-0.001-0.002c-1.868-6.972-5.754-12.865-10.86-17.221c1.218-0.225,2.464-0.363,3.733-0.405
			l0.188,0.19c3.601,3.601,8.072,6.329,13.072,7.843c0.913,1.287,1.939,2.328,3.03,3.12c1.884,1.367,3.97,2.052,6.089,2.052v-0.016
			c2.133,0,4.219-0.679,6.089-2.036c1.096-0.795,2.124-1.841,3.04-3.134c4.982-1.517,9.438-4.24,13.028-7.83L1706.222,1029.012z"/>
		<path fill="#4C516D" d="M1706.222,1029.012c13.518,0.45,24.438,11.646,24.438,25.268v17.36h-64.885
			c3.938-7.411,5.189-16.267,2.85-25.001l-0.001-0.002c-1.868-6.972-5.754-12.865-10.86-17.221c1.218-0.225,2.464-0.363,3.733-0.405
			l0.188,0.19c3.601,3.601,8.072,6.329,13.072,7.843c0.913,1.287,1.939,2.328,3.03,3.12c1.884,1.367,3.97,2.052,6.089,2.052v-0.016
			c2.133,0,4.219-0.679,6.089-2.036c1.096-0.795,2.124-1.841,3.04-3.134c4.982-1.517,9.438-4.24,13.028-7.83L1706.222,1029.012z"/>
	</g>
	<path fill-rule="evenodd" clip-rule="evenodd" fill="#4C516D" d="M1662.685,1076.435c15.242,0.19,27.655,12.717,27.655,28.001
		v19.23h-103.68v-19.23c0-13.355,9.476-24.604,22.035-27.359C1622.594,1094.283,1649.103,1094.165,1662.685,1076.435z"/>
	<path fill-rule="evenodd" clip-rule="evenodd" fill="#A9BA9D" d="M1627.588,1026.205c16.193-4.339,32.838,5.271,37.177,21.464
		c4.34,16.193-5.271,32.838-21.464,37.177c-16.193,4.34-32.839-5.271-37.178-21.464S1611.394,1030.544,1627.588,1026.205
		L1627.588,1026.205z M1638.048,1065.247l-14.242,3.816c2.159,8.059,10.287,12.883,18.152,10.775
		c7.866-2.108,12.492-10.349,10.333-18.408L1638.048,1065.247L1638.048,1065.247z M1616.756,1047.351l13.853,2.911l-10.541,9.448
		c-0.615,0.55-0.668,1.495-0.117,2.109c0.55,0.615,1.494,0.667,2.109,0.117l12.175-10.913l16.007,3.364
		c0.809,0.168,1.602-0.351,1.77-1.16c0.168-0.809-0.352-1.601-1.16-1.769l-13.854-2.912l10.543-9.449
		c0.614-0.55,0.667-1.495,0.117-2.109c-0.551-0.615-1.495-0.667-2.109-0.117l-12.176,10.913l-16.007-3.364
		c-0.809-0.168-1.602,0.352-1.77,1.16S1615.947,1047.183,1616.756,1047.351z"/>
	<path fill-rule="evenodd" clip-rule="evenodd" fill="#A9BA9D" d="M1670.183,983.336c13.084-7.554,29.813-3.071,37.365,10.012
		c7.555,13.083,3.071,29.812-10.012,37.365c-0.639,0.369-1.285,0.708-1.939,1.02c1.541-4.73,1.43-9.067,1.43-13.916l-26.301,0
		c0,4.857-0.112,9.197,1.439,13.935c-4.863-2.294-9.102-6.042-11.994-11.051C1652.618,1007.618,1657.101,990.89,1670.183,983.336z"
		/>
	<path fill-rule="evenodd" clip-rule="evenodd" fill="#C40001" d="M1693.032,1021.812c0,21.878-18.313,21.868-18.313,0l7.854,0
		v5.118c0.001,1.087,0.508,1.968,1.135,1.968c0.625,0,1.133-0.881,1.134-1.968l-0.001-5.118H1693.032z"/>
</g>
<g>
	<g>
		<path fill="#A3A5B2" d="M1706.222,1474.903c13.518,0.45,24.438,11.646,24.438,25.268v17.361h-64.885
			c3.938-7.411,5.189-16.268,2.85-25.002l-0.001-0.002c-1.868-6.972-5.754-12.865-10.86-17.221c1.218-0.225,2.464-0.363,3.733-0.405
			l0.188,0.19c3.601,3.601,8.072,6.329,13.072,7.843c0.913,1.287,1.939,2.328,3.03,3.12c1.884,1.367,3.97,2.052,6.089,2.052v-0.016
			c2.133,0,4.219-0.679,6.089-2.036c1.096-0.795,2.124-1.841,3.04-3.134c4.982-1.517,9.438-4.24,13.028-7.83L1706.222,1474.903z"/>
		<path fill="#A3A5B2" d="M1706.222,1474.903c13.518,0.45,24.438,11.646,24.438,25.268v17.361h-64.885
			c3.938-7.411,5.189-16.268,2.85-25.002l-0.001-0.002c-1.868-6.972-5.754-12.865-10.86-17.221c1.218-0.225,2.464-0.363,3.733-0.405
			l0.188,0.19c3.601,3.601,8.072,6.329,13.072,7.843c0.913,1.287,1.939,2.328,3.03,3.12c1.884,1.367,3.97,2.052,6.089,2.052v-0.016
			c2.133,0,4.219-0.679,6.089-2.036c1.096-0.795,2.124-1.841,3.04-3.134c4.982-1.517,9.438-4.24,13.028-7.83L1706.222,1474.903z"/>
	</g>
	<path fill-rule="evenodd" clip-rule="evenodd" fill="#A3A5B2" d="M1662.685,1522.326c15.242,0.189,27.655,12.717,27.655,28.001
		v19.23h-103.68v-19.23c0-13.355,9.476-24.604,22.035-27.358C1622.594,1540.174,1649.103,1540.056,1662.685,1522.326z"/>
	<path fill-rule="evenodd" clip-rule="evenodd" fill="#A3A5B2" d="M1627.588,1472.096c16.193-4.339,32.838,5.271,37.177,21.464
		c4.34,16.194-5.271,32.838-21.464,37.177c-16.193,4.34-32.839-5.271-37.178-21.464
		C1601.784,1493.08,1611.394,1476.435,1627.588,1472.096L1627.588,1472.096z M1638.048,1511.138l-14.242,3.816
		c2.159,8.059,10.287,12.883,18.152,10.775c7.866-2.108,12.492-10.349,10.333-18.408L1638.048,1511.138L1638.048,1511.138z
		 M1616.756,1493.241l13.853,2.911l-10.541,9.448c-0.615,0.55-0.668,1.495-0.117,2.109c0.55,0.614,1.494,0.667,2.109,0.117
		l12.175-10.913l16.007,3.364c0.809,0.168,1.602-0.351,1.77-1.16c0.168-0.809-0.352-1.601-1.16-1.769l-13.854-2.912l10.543-9.449
		c0.614-0.55,0.667-1.495,0.117-2.109c-0.551-0.615-1.495-0.667-2.109-0.117l-12.176,10.913l-16.007-3.364
		c-0.809-0.168-1.602,0.352-1.77,1.16S1615.947,1493.073,1616.756,1493.241z"/>
	<path fill-rule="evenodd" clip-rule="evenodd" fill="#A3A5B2" d="M1670.183,1429.227c13.084-7.554,29.813-3.071,37.365,10.012
		c7.555,13.083,3.071,29.812-10.012,37.365c-0.639,0.369-1.285,0.708-1.939,1.02c1.541-4.73,1.43-9.067,1.43-13.916l-26.301,0
		c0,4.857-0.112,9.197,1.439,13.935c-4.863-2.294-9.102-6.042-11.994-11.051C1652.618,1453.509,1657.101,1436.78,1670.183,1429.227z
		"/>
	<path fill-rule="evenodd" clip-rule="evenodd" fill="#A3A5B2" d="M1693.032,1467.702c0,21.878-18.313,21.868-18.313,0l7.854,0
		v5.118c0.001,1.087,0.508,1.968,1.135,1.968c0.625,0,1.133-0.881,1.134-1.968l-0.001-5.118H1693.032z"/>
</g>
<g>
	<path fill-rule="evenodd" clip-rule="evenodd" fill="#4C516D" d="M1504.485,1209.812h-126.706c-4.763,0-8.646,3.884-8.646,8.647
		v94.592c0,4.763,3.884,8.647,8.646,8.647h47.608v13.89h-9.231c-3.031,0-5.511,2.479-5.511,5.512v5.513h60.975v-5.513
		c0-3.032-2.479-5.512-5.512-5.512h-9.23v-13.89h47.607c4.763,0,8.647-3.885,8.647-8.647v-94.592
		C1513.133,1213.696,1509.248,1209.812,1504.485,1209.812z M1487.345,1317.819c-1.593,0-2.892-1.299-2.892-2.891
		c0-1.593,1.299-2.892,2.892-2.892c1.592,0,2.891,1.299,2.891,2.892C1490.235,1316.521,1488.937,1317.819,1487.345,1317.819z
		 M1497.355,1317.819c-1.593,0-2.892-1.299-2.892-2.891c0-1.593,1.299-2.892,2.892-2.892c1.592,0,2.891,1.299,2.891,2.892
		C1500.246,1316.521,1498.947,1317.819,1497.355,1317.819z M1506.556,1306.474c0,1.133-0.938,2.07-2.07,2.07h-126.706
		c-1.132,0-2.07-0.938-2.07-2.07v-88.015c0-0.566,0.234-1.083,0.61-1.459c0.377-0.376,0.895-0.611,1.46-0.611h126.706
		c1.132,0,2.07,0.938,2.07,2.07V1306.474z"/>
	<g>
		<path fill-rule="evenodd" clip-rule="evenodd" fill="#4C516D" d="M1419.075,1274.67h0.822c5.438,5.431,12.944,8.789,21.235,8.789
			c8.289,0,15.796-3.357,21.231-8.786c13.789,0.138,25.027,11.461,25.027,25.28v4.59h-93.6v-4.59
			C1393.792,1286.047,1405.17,1274.67,1419.075,1274.67z"/>
		<path fill-rule="evenodd" clip-rule="evenodd" fill="#4C516D" d="M1419.075,1274.67h0.822c5.438,5.431,12.944,8.789,21.235,8.789
			c8.289,0,15.796-3.357,21.231-8.786c13.789,0.138,25.027,11.461,25.027,25.28v4.59h-93.6v-4.59
			C1393.792,1286.047,1405.17,1274.67,1419.075,1274.67z"/>
	</g>
	<path fill-rule="evenodd" clip-rule="evenodd" fill="#A9BA9D" d="M1441.133,1227.359c14.387,0,26.05,11.664,26.05,26.05
		s-11.663,26.05-26.05,26.05c-14.388,0-26.05-11.663-26.05-26.05S1426.745,1227.359,1441.133,1227.359L1441.133,1227.359z
		 M1441.133,1260.14c-5.179,0-9.376,3.315-9.376,7.403c0,4.088,4.197,7.402,9.376,7.402c5.178,0,9.376-3.314,9.376-7.402
		C1450.509,1263.455,1446.311,1260.14,1441.133,1260.14z"/>
</g>
<g>
	<path fill-rule="evenodd" clip-rule="evenodd" fill="#A3A5B2" d="M1504.485,1652.502h-126.706c-4.763,0-8.646,3.885-8.646,8.646
		v94.592c0,4.764,3.884,8.648,8.646,8.648h47.608v13.889h-9.231c-3.031,0-5.511,2.48-5.511,5.512v5.514h60.975v-5.514
		c0-3.031-2.479-5.512-5.512-5.512h-9.23v-13.889h47.607c4.763,0,8.647-3.885,8.647-8.648v-94.592
		C1513.133,1656.387,1509.248,1652.502,1504.485,1652.502z M1487.345,1760.51c-1.593,0-2.892-1.299-2.892-2.891
		c0-1.594,1.299-2.893,2.892-2.893c1.592,0,2.891,1.299,2.891,2.893C1490.235,1759.211,1488.937,1760.51,1487.345,1760.51z
		 M1497.355,1760.51c-1.593,0-2.892-1.299-2.892-2.891c0-1.594,1.299-2.893,2.892-2.893c1.592,0,2.891,1.299,2.891,2.893
		C1500.246,1759.211,1498.947,1760.51,1497.355,1760.51z M1506.556,1749.164c0,1.133-0.938,2.07-2.07,2.07h-126.706
		c-1.132,0-2.07-0.938-2.07-2.07v-88.016c0-0.565,0.234-1.083,0.61-1.459c0.377-0.377,0.895-0.611,1.46-0.611h126.706
		c1.132,0,2.07,0.938,2.07,2.07V1749.164z"/>
	<g>
		<path fill-rule="evenodd" clip-rule="evenodd" fill="#A3A5B2" d="M1419.075,1717.36h0.822c5.438,5.431,12.944,8.788,21.235,8.788
			c8.289,0,15.796-3.356,21.231-8.785c13.789,0.139,25.027,11.461,25.027,25.279v4.592h-93.6v-4.592
			C1393.792,1728.736,1405.17,1717.36,1419.075,1717.36z"/>
		<path fill-rule="evenodd" clip-rule="evenodd" fill="#A3A5B2" d="M1419.075,1717.36h0.822c5.438,5.431,12.944,8.788,21.235,8.788
			c8.289,0,15.796-3.356,21.231-8.785c13.789,0.139,25.027,11.461,25.027,25.279v4.592h-93.6v-4.592
			C1393.792,1728.736,1405.17,1717.36,1419.075,1717.36z"/>
	</g>
	<path fill-rule="evenodd" clip-rule="evenodd" fill="#A3A5B2" d="M1441.133,1670.049c14.387,0,26.05,11.664,26.05,26.051
		s-11.663,26.049-26.05,26.049c-14.388,0-26.05-11.662-26.05-26.049S1426.745,1670.049,1441.133,1670.049L1441.133,1670.049z
		 M1441.133,1702.83c-5.179,0-9.376,3.314-9.376,7.402s4.197,7.402,9.376,7.402c5.178,0,9.376-3.314,9.376-7.402
		S1446.311,1702.83,1441.133,1702.83z"/>
</g>
<g>
	<circle fill-rule="evenodd" clip-rule="evenodd" fill="#A9BA9D" cx="1464.298" cy="995.203" r="15.532"/>
	<circle fill-rule="evenodd" clip-rule="evenodd" fill="#A9BA9D" cx="1414.435" cy="995.203" r="15.532"/>
	<g>
		<path fill-rule="evenodd" clip-rule="evenodd" fill="#4C516D" d="M1501.791,1032.917c0.194-2.504-0.976-5.028-3.253-6.451
			l-19.266-12.066c-0.628-0.393-1.295-0.67-1.977-0.843c-1.79-0.597-3.769-0.699-5.728-0.175c-5.329,1.424-8.494,6.898-7.07,12.227
			l10.638,39.263l0.12,48.835c0,5.501,4.459,9.961,9.961,9.961c5.501,0,9.961-4.46,9.961-9.961l-0.111-45.603
			c-0.984,0.202-2.01,0.28-3.061,0.198v-0.001c-3.023-0.241-5.664-1.682-7.488-3.818c-1.831-2.143-2.846-4.978-2.609-7.997
			l1.459-18.389c0.226-2.84,3.742-2.643,4.046-0.456l-1.521,19.157c-0.302,3.851,2.575,7.217,6.426,7.519
			c0.239,0.019,0.477,0.025,0.713,0.02c0.152-0.003,0.302-0.02,0.452-0.033c0.081-0.007,0.163-0.008,0.243-0.018
			c0.227-0.028,0.451-0.067,0.673-0.117c0.001,0,0.001,0,0.001,0c0.219-0.049,0.434-0.109,0.644-0.178
			c0.004-0.001,0.009-0.002,0.013-0.003c2.595-0.857,4.555-3.201,4.781-6.096l1.981-24.972L1501.791,1032.917z"/>
		<path fill-rule="evenodd" clip-rule="evenodd" fill="#4C516D" d="M1458.569,1039.267l-19.203,5.497l-19.202-5.497l-5.429-17.691
			c-0.146-0.474-0.339-0.92-0.57-1.337c-0.947-3.239-3.502-5.923-7-6.857c-5.328-1.424-10.803,1.742-12.227,7.071l-10.947,40.403
			l0.023,0.006c-0.219,0.821-0.336,1.682-0.336,2.572l-0.123,50.273c0,5.501,4.46,9.961,9.961,9.961s9.961-4.46,9.961-9.961
			l0.12-48.835l4.621-17.055c0.912,2.423,3.041,4.079,5.475,4.446l24.278,6.434c0.916,0.187,1.873,0.188,2.79,0l24.278-6.434
			c0.82-0.124,1.608-0.394,2.327-0.789l-5.883-21.708L1458.569,1039.267z"/>
		<path fill-rule="evenodd" clip-rule="evenodd" fill="#4C516D" d="M1383.009,1024.403c-2.353,1.398-4.452,3.805-5.022,6.105
			l-6.575,22.51c-1.072,3.7,1.058,7.568,4.757,8.641c1.159,0.336,2.334,0.357,3.436,0.114l0.528-1.949l10.888-40.182
			L1383.009,1024.403z"/>
	</g>
	<path fill-rule="evenodd" clip-rule="evenodd" fill="#C40001" d="M1431.344,1065.881c-0.728-0.392-1-1.299-0.609-2.027
		c0.392-0.728,1.3-1.001,2.027-0.609c2.163,1.167,4.348,1.868,6.56,1.924c2.192,0.057,4.462-0.52,6.827-1.901
		c0.715-0.417,1.633-0.176,2.051,0.539c0.417,0.715,0.176,1.633-0.539,2.051c-2.865,1.673-5.664,2.37-8.41,2.299
		C1436.524,1068.087,1433.897,1067.259,1431.344,1065.881L1431.344,1065.881z M1435.34,1028.255
		c-0.782,0.262-1.63-0.161-1.893-0.943c-0.262-0.783,0.161-1.63,0.943-1.893c2.359-0.793,4.698-1.194,7.008-1.056
		c2.355,0.141,4.66,0.835,6.896,2.232c0.702,0.437,0.917,1.36,0.48,2.063c-0.437,0.702-1.36,0.917-2.063,0.48
		c-1.791-1.12-3.624-1.675-5.488-1.787C1439.313,1027.238,1437.348,1027.58,1435.34,1028.255L1435.34,1028.255z M1433.801,1037.387
		c-0.731,0.385-1.637,0.104-2.021-0.627c-0.385-0.731-0.104-1.636,0.627-2.021c2.598-1.375,5.27-2.201,8.04-2.271
		c2.79-0.07,5.636,0.625,8.552,2.293c0.718,0.411,0.967,1.327,0.557,2.045c-0.411,0.718-1.326,0.968-2.045,0.557
		c-2.42-1.385-4.745-1.963-6.993-1.907C1438.25,1035.514,1436.014,1036.216,1433.801,1037.387L1433.801,1037.387z
		 M1433.809,1074.762c-0.786-0.252-1.219-1.095-0.967-1.881s1.094-1.219,1.881-0.967c2.117,0.679,4.193,1.024,6.213,0.909
		c1.975-0.113,3.912-0.672,5.801-1.798c0.708-0.424,1.627-0.193,2.051,0.515c0.424,0.709,0.192,1.627-0.516,2.051
		c-2.331,1.39-4.727,2.08-7.173,2.22C1438.698,1075.948,1436.265,1075.55,1433.809,1074.762z"/>
</g>
<g>
	<circle fill-rule="evenodd" clip-rule="evenodd" fill="#A3A5B2" cx="1464.298" cy="1441.094" r="15.532"/>
	<circle fill-rule="evenodd" clip-rule="evenodd" fill="#A3A5B2" cx="1414.435" cy="1441.094" r="15.532"/>
	<g>
		<path fill-rule="evenodd" clip-rule="evenodd" fill="#A3A5B2" d="M1501.791,1478.807c0.194-2.504-0.976-5.028-3.253-6.451
			l-19.266-12.066c-0.628-0.393-1.295-0.67-1.977-0.843c-1.79-0.597-3.769-0.699-5.728-0.175c-5.329,1.424-8.494,6.898-7.07,12.227
			l10.638,39.264l0.12,48.834c0,5.502,4.459,9.961,9.961,9.961c5.501,0,9.961-4.459,9.961-9.961l-0.111-45.602
			c-0.984,0.201-2.01,0.279-3.061,0.197v-0.002c-3.023-0.24-5.664-1.682-7.488-3.817c-1.831-2.144-2.846-4.978-2.609-7.997
			l1.459-18.389c0.226-2.84,3.742-2.643,4.046-0.456l-1.521,19.157c-0.302,3.852,2.575,7.218,6.426,7.52
			c0.239,0.02,0.477,0.025,0.713,0.02c0.152-0.003,0.302-0.02,0.452-0.033c0.081-0.006,0.163-0.008,0.243-0.018
			c0.227-0.027,0.451-0.066,0.673-0.117c0.001,0,0.001,0,0.001,0c0.219-0.049,0.434-0.109,0.644-0.178
			c0.004-0.002,0.009-0.002,0.013-0.004c2.595-0.856,4.555-3.201,4.781-6.096l1.981-24.972L1501.791,1478.807z"/>
		<path fill-rule="evenodd" clip-rule="evenodd" fill="#A3A5B2" d="M1458.569,1485.157l-19.203,5.497l-19.202-5.497l-5.429-17.691
			c-0.146-0.474-0.339-0.92-0.57-1.337c-0.947-3.239-3.502-5.923-7-6.857c-5.328-1.424-10.803,1.742-12.227,7.071l-10.947,40.402
			l0.023,0.007c-0.219,0.821-0.336,1.683-0.336,2.571l-0.123,50.273c0,5.502,4.46,9.961,9.961,9.961s9.961-4.459,9.961-9.961
			l0.12-48.834l4.621-17.056c0.912,2.423,3.041,4.079,5.475,4.446l24.278,6.434c0.916,0.188,1.873,0.188,2.79,0l24.278-6.434
			c0.82-0.124,1.608-0.394,2.327-0.789l-5.883-21.708L1458.569,1485.157z"/>
		<path fill-rule="evenodd" clip-rule="evenodd" fill="#A3A5B2" d="M1383.009,1470.293c-2.353,1.398-4.452,3.805-5.022,6.105
			l-6.575,22.51c-1.072,3.7,1.058,7.569,4.757,8.641c1.159,0.336,2.334,0.356,3.436,0.113l0.528-1.949l10.888-40.181
			L1383.009,1470.293z"/>
	</g>
	<path fill-rule="evenodd" clip-rule="evenodd" fill="#A3A5B2" d="M1431.344,1511.771c-0.728-0.393-1-1.3-0.609-2.027
		c0.392-0.729,1.3-1.002,2.027-0.609c2.163,1.166,4.348,1.867,6.56,1.924c2.192,0.057,4.462-0.52,6.827-1.9
		c0.715-0.418,1.633-0.176,2.051,0.539c0.417,0.715,0.176,1.633-0.539,2.051c-2.865,1.673-5.664,2.369-8.41,2.299
		C1436.524,1513.977,1433.897,1513.148,1431.344,1511.771L1431.344,1511.771z M1435.34,1474.146
		c-0.782,0.262-1.63-0.161-1.893-0.943c-0.262-0.783,0.161-1.63,0.943-1.893c2.359-0.793,4.698-1.194,7.008-1.056
		c2.355,0.141,4.66,0.835,6.896,2.232c0.702,0.437,0.917,1.36,0.48,2.063c-0.437,0.702-1.36,0.917-2.063,0.48
		c-1.791-1.12-3.624-1.675-5.488-1.787C1439.313,1473.128,1437.348,1473.47,1435.34,1474.146L1435.34,1474.146z M1433.801,1483.277
		c-0.731,0.385-1.637,0.104-2.021-0.627c-0.385-0.731-0.104-1.636,0.627-2.021c2.598-1.375,5.27-2.201,8.04-2.271
		c2.79-0.07,5.636,0.625,8.552,2.293c0.718,0.411,0.967,1.327,0.557,2.045c-0.411,0.718-1.326,0.968-2.045,0.557
		c-2.42-1.385-4.745-1.963-6.993-1.907C1438.25,1481.404,1436.014,1482.106,1433.801,1483.277L1433.801,1483.277z
		 M1433.809,1520.652c-0.786-0.253-1.219-1.096-0.967-1.881c0.252-0.787,1.094-1.22,1.881-0.967
		c2.117,0.679,4.193,1.023,6.213,0.908c1.975-0.113,3.912-0.672,5.801-1.798c0.708-0.424,1.627-0.193,2.051,0.515
		c0.424,0.709,0.192,1.628-0.516,2.052c-2.331,1.39-4.727,2.08-7.173,2.22C1438.698,1521.838,1436.265,1521.439,1433.809,1520.652z"
		/>
</g>
<g>
	<g>
		<path fill-rule="evenodd" clip-rule="evenodd" fill="#C40001" d="M990.637,1231.061c1.559,0,2.829-1.271,2.829-2.829
			c0-1.559-1.271-2.829-2.829-2.829s-2.829,1.271-2.829,2.829C987.808,1229.79,989.078,1231.061,990.637,1231.061z"/>
		<path fill-rule="evenodd" clip-rule="evenodd" fill="#C40001" d="M1000.987,1231.061c1.558,0,2.829-1.271,2.829-2.829
			c0-1.559-1.271-2.829-2.829-2.829s-2.829,1.271-2.829,2.829C998.158,1229.79,999.43,1231.061,1000.987,1231.061z"/>
		<path fill-rule="evenodd" clip-rule="evenodd" fill="#C40001" d="M1011.338,1231.061c1.558,0,2.828-1.271,2.828-2.829
			c0-1.559-1.271-2.829-2.828-2.829c-1.559,0-2.83,1.271-2.83,2.829C1008.508,1229.79,1009.779,1231.061,1011.338,1231.061z"/>
	</g>
	<circle fill="#A9BA9D" cx="956.357" cy="1248.076" r="12.26"/>
	<path fill="#4C516D" d="M976.537,1263.304c-1.841-2.688-4.741-4.601-8.086-5.122c-0.301,0.359-0.618,0.707-0.949,1.038
		c-2.852,2.852-6.793,4.616-11.145,4.616c-4.351,0-8.291-1.764-11.143-4.616c-0.332-0.332-0.648-0.678-0.95-1.038
		c-5.75,0.896-10.187,5.901-10.187,11.893v12.036h22.279h15.264c1.182-1.849,2.06-3.636,2.06-4.904l0.001-5.996h-0.014
		C973.668,1266.617,974.718,1264.187,976.537,1263.304z"/>
	<path fill-rule="evenodd" clip-rule="evenodd" fill="#C40001" d="M1001.269,1205.612c-6.765,0-12.856,2.278-17.232,5.96
		c-4.236,3.563-6.856,8.455-6.856,13.829c0,2.124,0.404,4.163,1.15,6.064c0.789,2.009,1.953,3.874,3.422,5.536
		c0.822,0.929,0.961,2.228,0.453,3.28l0.004,0.001l-1.954,4.023l7.368-1.786c0.703-0.17,1.408-0.076,2.011,0.217
		c1.725,0.784,3.592,1.402,5.569,1.824c1.924,0.411,3.955,0.629,6.065,0.629c6.767,0,12.856-2.278,17.233-5.96
		c4.236-3.563,6.855-8.455,6.855-13.829s-2.619-10.266-6.855-13.829C1014.125,1207.89,1008.035,1205.612,1001.269,1205.612
		L1001.269,1205.612z M1001.269,1202.612c14.961,0,27.089,10.203,27.089,22.789c0,12.585-12.128,22.789-27.089,22.789
		c-4.688,0-9.097-1.002-12.942-2.765l-13.535,3.281l4.723-9.725c-3.352-3.792-5.334-8.492-5.334-13.58
		C974.18,1212.815,986.308,1202.612,1001.269,1202.612z"/>
	<path fill-rule="evenodd" clip-rule="evenodd" fill="#C40001" d="M1002.604,1303.394c-3.099,1.58-8.663,2.34-14.382,2.483
		c-0.81-2.447-2.181-4.639-3.962-6.42c-2.954-2.955-7.036-4.782-11.545-4.782c-1.958,0-3.835,0.345-5.574,0.977
		c0.147-1.35,0.554-2.516,1.091-3.277c1.449-2.057,8.935-10.133,8.936-15.167v-5.996c0-18.708,13.541,24.624,15.284,5.525
		c1.351-14.804,9.243,3.867,11.889,16.134c-1.254,2.312-1.967,4.961-1.967,7.776
		C1002.374,1301.583,1002.453,1302.501,1002.604,1303.394L1002.604,1303.394z M980.39,1305.697c-0.32-0.463-0.682-0.895-1.078-1.292
		c-1.688-1.688-4.02-2.732-6.596-2.732c-1.376,0-2.683,0.298-3.858,0.833c0.136,0.192,0.279,0.381,0.433,0.566
		C970.353,1304.354,974.887,1305.301,980.39,1305.697z"/>
	<path fill-rule="evenodd" clip-rule="evenodd" fill="#A9BA9D" d="M1054.768,1262.239c7.085,0,12.827,5.743,12.827,12.827
		c0,7.084-5.742,12.827-12.827,12.827c-7.084,0-12.827-5.743-12.827-12.827C1041.94,1267.981,1047.684,1262.239,1054.768,1262.239
		L1054.768,1262.239z"/>
	<path fill-rule="evenodd" clip-rule="evenodd" fill="#4C516D" d="M1067.231,1285.612c-0.292,0.345-0.6,0.679-0.919,0.999
		c-2.954,2.955-7.036,4.782-11.545,4.782c-4.508,0-8.59-1.828-11.545-4.782c-0.319-0.32-0.627-0.653-0.919-0.999
		c-4.149,0.582-7.666,3.206-9.495,6.814c1.41,2.415,2.219,5.224,2.219,8.222c0,2.66-0.636,5.171-1.765,7.39
		c2.062,0.509,3.97,1.418,5.636,2.639h39.18v-12.594C1078.078,1291.749,1073.339,1286.47,1067.231,1285.612z"/>
	<path fill-rule="evenodd" clip-rule="evenodd" fill="#A9BA9D" d="M1018.701,1287.82c7.084,0,12.826,5.743,12.826,12.827
		c0,7.084-5.742,12.827-12.826,12.827c-7.085,0-12.828-5.743-12.828-12.827C1005.873,1293.563,1011.616,1287.82,1018.701,1287.82
		L1018.701,1287.82z"/>
	<path fill-rule="evenodd" clip-rule="evenodd" fill="#4C516D" d="M1031.164,1311.193c-0.292,0.345-0.599,0.678-0.919,0.999
		c-2.954,2.954-7.036,4.782-11.544,4.782c-4.509,0-8.591-1.828-11.545-4.782c-0.32-0.32-0.627-0.653-0.92-0.999
		c-5.982,0.839-10.651,5.923-10.84,12.083c2.564,2.853,4.13,6.622,4.13,10.742v2.239h42.484v-12.593
		C1042.011,1317.33,1037.271,1312.05,1031.164,1311.193z"/>
	<path fill-rule="evenodd" clip-rule="evenodd" fill="#A9BA9D" d="M972.716,1298.174c7.085,0,12.827,5.743,12.827,12.828
		s-5.742,12.827-12.827,12.827s-12.827-5.743-12.827-12.827S965.631,1298.174,972.716,1298.174L972.716,1298.174z"/>
	<path fill-rule="evenodd" clip-rule="evenodd" fill="#4C516D" d="M985.18,1321.548c-0.292,0.345-0.599,0.679-0.919,0.999
		c-2.954,2.954-7.036,4.782-11.545,4.782s-8.59-1.828-11.544-4.782c-0.32-0.32-0.628-0.653-0.92-0.999
		c-6.107,0.857-10.847,6.137-10.847,12.471v12.593h46.621v-12.593C996.026,1327.685,991.287,1322.405,985.18,1321.548z"/>
</g>
<g>
	<path fill-rule="evenodd" clip-rule="evenodd" fill="#4C516D" d="M1154.52,1202.612h112.263c1.604,0,2.915,1.312,2.915,2.915
		v57.582c-1.182-0.207-2.397-0.315-3.638-0.315c-1.496,0-2.956,0.157-4.362,0.455v-52.636h-102.092v85.072h50.692
		c0.644,2.394,2.154,4.67,4.742,6.44l2.281,1.56h-62.802c-1.603,0-2.914-1.312-2.914-2.915v-95.243
		C1151.605,1203.923,1152.917,1202.612,1154.52,1202.612z"/>
	<path fill-rule="evenodd" clip-rule="evenodd" fill="#A9BA9D" d="M1186.887,1233.135c0.532-0.142,1.08,0.175,1.223,0.707
		c0.143,0.533-0.174,1.081-0.707,1.223c-4.243,1.137-5.235,2.821-4.699,4.823c0.524,1.956,2.28,4.325,4.118,6.805
		c2.084,2.811,4.269,5.759,5.129,8.694c1.393,4.75-0.505,9.181-11.072,12.278c-5.135,1.505-7.692,4.75-8.25,8.097
		c-0.216,1.296-0.136,2.609,0.207,3.842c0.342,1.231,0.946,2.384,1.78,3.361c2.077,2.434,5.604,3.775,10.079,2.537
		c2.792-0.772,4.329-2.468,4.913-4.385c0.309-1.017,0.357-2.104,0.189-3.154c-0.17-1.055-0.56-2.069-1.125-2.938
		c-1.025-1.573-2.637-2.649-4.553-2.556c-3.25,0.158-5.105,1.432-5.824,2.937c-0.266,0.557-0.376,1.15-0.342,1.727
		c0.032,0.568,0.208,1.121,0.513,1.605c0.716,1.141,2.171,1.913,4.216,1.683c1.08-0.122,1.673-0.612,1.881-1.157
		c0.07-0.186,0.099-0.377,0.088-0.559c-0.011-0.172-0.057-0.336-0.135-0.478c-0.155-0.285-0.473-0.479-0.92-0.443
		c-0.55,0.043-1.031-0.368-1.074-0.918s0.368-1.031,0.918-1.074c1.331-0.107,2.313,0.535,2.826,1.474
		c0.219,0.399,0.349,0.852,0.377,1.321c0.027,0.458-0.04,0.934-0.213,1.387c-0.446,1.173-1.576,2.211-3.529,2.431
		c-2.904,0.327-5.028-0.862-6.123-2.604c-0.484-0.771-0.764-1.652-0.816-2.558c-0.053-0.898,0.12-1.824,0.537-2.696
		c1.003-2.101,3.424-3.87,7.527-4.07c2.695-0.132,4.927,1.328,6.318,3.462c0.716,1.098,1.208,2.379,1.422,3.711
		c0.215,1.335,0.148,2.729-0.252,4.045c-0.769,2.526-2.742,4.747-6.289,5.728c-5.331,1.475-9.584-0.184-12.125-3.162
		c-1.024-1.2-1.767-2.615-2.187-4.127c-0.419-1.51-0.518-3.117-0.254-4.701c0.673-4.039,3.672-7.928,9.656-9.683
		c9.07-2.659,10.792-6.146,9.721-9.802c-0.761-2.598-2.837-5.398-4.816-8.068c-1.956-2.64-3.826-5.163-4.446-7.477
		C1179.926,1237.241,1181.177,1234.666,1186.887,1233.135z"/>
	<path fill-rule="evenodd" clip-rule="evenodd" fill="#A9BA9D" d="M1216.649,1251.271c0.385-8.358,3.759-13.954,7.973-16.551
		c1.799-1.108,3.754-1.679,5.71-1.696c1.967-0.017,3.921,0.522,5.706,1.631c4.052,2.518,7.242,8.004,7.601,16.594
		c-0.983,6.841-6.122,13.334-13.496,13.334C1222.777,1264.584,1217.639,1258.104,1216.649,1251.271L1216.649,1251.271z
		 M1230.072,1256.709c-1.077,0-1.95,0.873-1.95,1.95c0,1.077,0.873,1.95,1.95,1.95c1.076,0,1.949-0.873,1.949-1.95
		C1232.021,1257.583,1231.148,1256.709,1230.072,1256.709L1230.072,1256.709z M1246.218,1253.686
		c-0.772,3.156-2.243,5.983-4.206,8.248c-3.027,3.491-7.224,5.651-11.869,5.651s-8.842-2.16-11.869-5.651
		c-1.972-2.274-3.445-5.115-4.215-8.287c-5.448,5.919-11.02,22.035-3.896,28.783c0.876,0.83,1.992,1.551,3.289,2.169
		c0.492-0.474,1.029-0.904,1.604-1.28c3.205-2.099,7.511-2.601,12.033,0.008c6.243,3.603,4.189,2.415,4.748,2.738l1.883,1.09
		c4.238-0.397,8.266-1.301,11.409-2.688c-0.009-0.242-0.013-0.485-0.013-0.729c0-5.783,2.345-11.02,6.135-14.81
		c0.459-0.459,0.939-0.896,1.439-1.312C1251.77,1262.175,1249.188,1256.799,1246.218,1253.686L1246.218,1253.686z
		 M1219.711,1250.361c5.98-1.888,14.766-1.962,20.876,0.029c-0.484-6.899-2.99-11.24-6.13-13.191
		c-1.297-0.806-2.702-1.198-4.102-1.186c-1.411,0.013-2.837,0.433-4.162,1.25C1222.91,1239.286,1220.248,1243.69,1219.711,1250.361z
		"/>
	<path fill-rule="evenodd" clip-rule="evenodd" fill="#C40001" d="M1233.529,1225.969v1.905h-7.215
		c0.077-0.725,0.313-1.41,0.702-2.058s1.163-1.507,2.313-2.58c0.927-0.865,1.494-1.453,1.704-1.76
		c0.282-0.425,0.425-0.845,0.425-1.263c0-0.46-0.122-0.813-0.37-1.06c-0.244-0.248-0.585-0.37-1.017-0.37
		c-0.431,0-0.771,0.13-1.025,0.39c-0.252,0.257-0.397,0.687-0.438,1.29l-2.055-0.206c0.122-1.135,0.505-1.95,1.149-2.445
		c0.646-0.492,1.45-0.74,2.417-0.74c1.061,0,1.894,0.288,2.501,0.86c0.604,0.572,0.907,1.285,0.907,2.138
		c0,0.485-0.087,0.945-0.26,1.385c-0.173,0.438-0.448,0.895-0.825,1.375c-0.247,0.32-0.7,0.777-1.35,1.375
		c-0.653,0.598-1.065,0.993-1.237,1.19c-0.176,0.195-0.316,0.387-0.423,0.572H1233.529z"/>
	<path fill-rule="evenodd" clip-rule="evenodd" fill="#C40001" d="M1184.742,1227.875h-2.055v-7.775
		c-0.75,0.705-1.635,1.228-2.655,1.565v-1.875c0.537-0.175,1.12-0.508,1.747-1c0.631-0.49,1.061-1.063,1.295-1.715h1.668V1227.875z"
		/>
	<path fill-rule="evenodd" clip-rule="evenodd" fill="#4C516D" d="M1225.104,1286.78c-8.682-5.009-15.549,6.758-7.814,12.046
		l27.064,18.502v29.283h51.252v-26.204c0-8.98-7.348-16.327-16.326-16.327C1253.418,1304.081,1252.793,1302.756,1225.104,1286.78
		L1225.104,1286.78z"/>
	<path fill-rule="evenodd" clip-rule="evenodd" fill="#A9BA9D" d="M1266.06,1266.793c-9.358,0-16.944,7.586-16.944,16.944
		c0,9.358,7.586,16.945,16.944,16.945c9.357,0,16.944-7.586,16.944-16.945C1283.004,1274.379,1275.417,1266.793,1266.06,1266.793z
		 M1266.06,1297.282c-2.841,0-5.143-1.818-5.143-4.06c0-2.242,2.302-4.059,5.143-4.059c2.84,0,5.142,1.817,5.142,4.059
		C1271.201,1295.464,1268.899,1297.282,1266.06,1297.282z"/>
</g>
<g>
	<path fill-rule="evenodd" clip-rule="evenodd" fill="#A3A5B2" d="M1210.298,1741.574h-50.692v-85.072h102.092v52.637
		c1.406-0.299,2.866-0.455,4.362-0.455c1.24,0,2.456,0.107,3.638,0.314v-57.582c0-1.602-1.312-2.914-2.915-2.914H1154.52
		c-1.603,0-2.914,1.311-2.914,2.914v95.243c0,1.603,1.312,2.915,2.914,2.915h62.802l-2.281-1.561
		C1212.452,1746.244,1210.941,1743.968,1210.298,1741.574z"/>
	<path fill-rule="evenodd" clip-rule="evenodd" fill="#A3A5B2" d="M1180.878,1713.556c10.567-3.098,12.465-7.528,11.072-12.278
		c-0.86-2.936-3.045-5.883-5.129-8.693c-1.838-2.48-3.594-4.85-4.118-6.806c-0.536-2.001,0.456-3.687,4.699-4.823
		c0.533-0.143,0.85-0.689,0.707-1.223c-0.143-0.532-0.69-0.85-1.223-0.707c-5.71,1.53-6.961,4.105-6.113,7.27
		c0.62,2.314,2.49,4.836,4.446,7.477c1.979,2.67,4.056,5.471,4.816,8.068c1.071,3.656-0.65,7.143-9.721,9.802
		c-5.984,1.755-8.983,5.644-9.656,9.683c-0.264,1.584-0.165,3.191,0.254,4.701c0.42,1.512,1.162,2.928,2.187,4.127
		c2.541,2.979,6.794,4.637,12.125,3.162c3.547-0.98,5.521-3.201,6.289-5.729c0.4-1.316,0.467-2.709,0.252-4.045
		c-0.214-1.332-0.706-2.613-1.422-3.711c-1.392-2.135-3.623-3.594-6.318-3.463c-4.104,0.201-6.524,1.97-7.527,4.07
		c-0.417,0.873-0.59,1.799-0.537,2.696c0.053,0.905,0.332,1.786,0.816,2.558c1.095,1.742,3.219,2.932,6.123,2.604
		c1.953-0.22,3.083-1.258,3.529-2.431c0.173-0.453,0.24-0.929,0.213-1.387c-0.028-0.47-0.158-0.923-0.377-1.322
		c-0.514-0.938-1.495-1.581-2.826-1.474c-0.55,0.043-0.961,0.524-0.918,1.074s0.524,0.961,1.074,0.918
		c0.447-0.036,0.765,0.158,0.92,0.442c0.078,0.142,0.124,0.307,0.135,0.479c0.011,0.182-0.018,0.373-0.088,0.559
		c-0.208,0.545-0.801,1.035-1.881,1.157c-2.045,0.229-3.5-0.542-4.216-1.683c-0.305-0.484-0.48-1.037-0.513-1.605
		c-0.034-0.576,0.076-1.17,0.342-1.727c0.719-1.505,2.574-2.779,5.824-2.938c1.916-0.093,3.527,0.984,4.553,2.557
		c0.565,0.868,0.955,1.883,1.125,2.938c0.168,1.051,0.119,2.138-0.189,3.154c-0.584,1.916-2.121,3.613-4.913,4.385
		c-4.476,1.238-8.002-0.104-10.079-2.537c-0.834-0.977-1.438-2.13-1.78-3.361c-0.343-1.232-0.423-2.546-0.207-3.842
		C1173.186,1718.305,1175.743,1715.061,1180.878,1713.556z"/>
	<path fill-rule="evenodd" clip-rule="evenodd" fill="#A3A5B2" d="M1252.689,1713.506c-0.92-5.441-3.501-10.816-6.472-13.93
		c-0.772,3.156-2.243,5.982-4.206,8.248c-3.027,3.49-7.224,5.65-11.869,5.65s-8.842-2.16-11.869-5.65
		c-1.972-2.274-3.445-5.115-4.215-8.287c-5.448,5.919-11.02,22.035-3.896,28.783c0.876,0.83,1.992,1.551,3.289,2.169
		c0.492-0.474,1.029-0.904,1.604-1.28c3.205-2.1,7.511-2.602,12.033,0.008c6.243,3.604,4.189,2.414,4.748,2.738l1.883,1.09
		c4.238-0.398,8.266-1.302,11.409-2.688c-0.009-0.242-0.013-0.486-0.013-0.73c0-5.783,2.345-11.02,6.135-14.809
		C1251.709,1714.358,1252.189,1713.922,1252.689,1713.506z"/>
	<path fill-rule="evenodd" clip-rule="evenodd" fill="#A3A5B2" d="M1216.649,1697.161c0.989,6.833,6.128,13.313,13.493,13.313
		c7.374,0,12.513-6.493,13.496-13.334c-0.358-8.591-3.549-14.076-7.601-16.595c-1.785-1.109-3.739-1.647-5.706-1.632
		c-1.956,0.018-3.911,0.588-5.71,1.696C1220.408,1683.207,1217.034,1688.803,1216.649,1697.161z M1230.072,1706.5
		c-1.077,0-1.95-0.873-1.95-1.95s0.873-1.95,1.95-1.95c1.076,0,1.949,0.873,1.949,1.95S1231.148,1706.5,1230.072,1706.5z
		 M1230.355,1681.902c1.399-0.012,2.805,0.381,4.102,1.187c3.14,1.952,5.646,6.292,6.13,13.191
		c-6.11-1.991-14.896-1.917-20.876-0.029c0.537-6.671,3.199-11.075,6.482-13.098
		C1227.519,1682.336,1228.944,1681.916,1230.355,1681.902z"/>
	<path fill-rule="evenodd" clip-rule="evenodd" fill="#A3A5B2" d="M1229.33,1669.127c-1.15,1.072-1.924,1.933-2.313,2.58
		s-0.625,1.332-0.702,2.058h7.215v-1.905h-4.095c0.106-0.186,0.247-0.377,0.423-0.572c0.172-0.197,0.584-0.592,1.237-1.189
		c0.649-0.598,1.103-1.055,1.35-1.375c0.377-0.48,0.652-0.938,0.825-1.375c0.173-0.44,0.26-0.9,0.26-1.385
		c0-0.854-0.303-1.566-0.907-2.139c-0.607-0.572-1.44-0.859-2.501-0.859c-0.967,0-1.771,0.248-2.417,0.74
		c-0.645,0.494-1.027,1.31-1.149,2.444l2.055,0.206c0.04-0.604,0.186-1.033,0.438-1.291c0.255-0.26,0.595-0.39,1.025-0.39
		c0.432,0,0.772,0.122,1.017,0.37c0.248,0.247,0.37,0.6,0.37,1.06c0,0.418-0.143,0.837-0.425,1.263
		C1230.824,1667.675,1230.257,1668.262,1229.33,1669.127z"/>
	<path fill-rule="evenodd" clip-rule="evenodd" fill="#A3A5B2" d="M1184.742,1673.765v-10.8h-1.668
		c-0.234,0.652-0.664,1.225-1.295,1.715c-0.627,0.492-1.21,0.824-1.747,1v1.875c1.021-0.338,1.905-0.859,2.655-1.564v7.774H1184.742
		z"/>
	<path fill-rule="evenodd" clip-rule="evenodd" fill="#A3A5B2" d="M1279.279,1749.971c-25.861,0-26.486-1.324-54.176-17.301
		c-8.682-5.009-15.549,6.758-7.814,12.047l27.064,18.502v29.283h51.252v-26.204
		C1295.605,1757.318,1288.258,1749.971,1279.279,1749.971z"/>
	<path fill-rule="evenodd" clip-rule="evenodd" fill="#A3A5B2" d="M1249.115,1729.627c0,9.359,7.586,16.945,16.944,16.945
		c9.357,0,16.944-7.586,16.944-16.945c0-9.357-7.587-16.943-16.944-16.943C1256.701,1712.684,1249.115,1720.27,1249.115,1729.627z
		 M1271.201,1739.112c0,2.242-2.302,4.06-5.142,4.06c-2.841,0-5.143-1.817-5.143-4.06c0-2.241,2.302-4.06,5.143-4.06
		C1268.899,1735.053,1271.201,1736.871,1271.201,1739.112z"/>
</g>
<g>
	<path fill-rule="evenodd" clip-rule="evenodd" fill="#4C516D" d="M1903.162,1266.166c7.588-5.188,0.853-16.729-7.664-11.816
		c-39.215,22.627-41.131,22.627-80.346,0c-8.516-4.914-15.251,6.628-7.663,11.816l25.254,17.266v20.357h34.03
		c-0.072-0.693-0.108-1.396-0.108-2.108c0-5.613,2.275-10.696,5.954-14.375C1878.208,1281.717,1895.91,1271.124,1903.162,1266.166
		L1903.162,1266.166z"/>
	<path fill-rule="evenodd" clip-rule="evenodd" fill="#A9BA9D" d="M1855.326,1234.745c-9.18,0-16.621,7.441-16.621,16.621
		s7.441,16.621,16.621,16.621c9.179,0,16.62-7.441,16.62-16.621S1864.505,1234.745,1855.326,1234.745z M1855.326,1264.309
		c-2.754,0-4.986-1.763-4.986-3.937s2.232-3.937,4.986-3.937c2.753,0,4.986,1.762,4.986,3.937S1858.079,1264.309,1855.326,1264.309z
		"/>
	<g>
		<path fill-rule="evenodd" clip-rule="evenodd" fill="#C40001" d="M1889.734,1205.612c-5.457,0-10.363,1.831-13.883,4.792
			c-3.378,2.842-5.469,6.737-5.469,11.011c0,2.784,0.885,5.403,2.432,7.667c1.662,2.434,4.076,4.473,6.981,5.899
			c1.179,0.576,1.809,1.826,1.652,3.059l0,0l-0.507,3.915l7.488-4.329c0.516-0.298,1.082-0.426,1.635-0.4
			c5.337-0.071,10.143-1.917,13.611-4.86c3.344-2.838,5.41-6.709,5.41-10.951c0-4.273-2.09-8.168-5.469-11.011
			C1900.098,1207.443,1895.191,1205.612,1889.734,1205.612L1889.734,1205.612z M1889.734,1202.612
			c-12.344,0-22.352,8.418-22.352,18.803c0,6.934,4.462,12.99,11.102,16.25l-1.284,9.91l12.729-7.359
			c12.254-0.089,22.156-8.472,22.156-18.801C1912.086,1211.03,1902.079,1202.612,1889.734,1202.612z"/>
	</g>
	<path fill-rule="evenodd" clip-rule="evenodd" fill="#4C516D" d="M1902.01,1315.385c8.647,0.499,15.568,7.728,15.568,16.495v16.523
		h-61.168v-16.523c0-8.768,6.921-15.996,15.568-16.495c0.209,0.229,0.422,0.452,0.641,0.67c3.679,3.679,8.762,5.955,14.375,5.955
		s10.696-2.275,14.375-5.955C1901.588,1315.837,1901.801,1315.614,1902.01,1315.385z"/>
	<path fill-rule="evenodd" clip-rule="evenodd" fill="#A9BA9D" d="M1886.994,1318.51c9.27,0,16.83-7.56,16.83-16.83
		s-7.561-16.83-16.83-16.83s-16.83,7.56-16.83,16.83S1877.725,1318.51,1886.994,1318.51z"/>
	<path fill-rule="evenodd" clip-rule="evenodd" fill="#C40001" d="M1930.33,1294.369c-0.675,1.833-2.813,3.174-5.347,3.174
		c-3.033,0-5.499-1.919-5.567-4.308c-7.504-2.553-12.778-8.591-12.778-15.633c0-9.353,9.301-16.935,20.774-16.935
		c11.475,0,20.775,7.582,20.775,16.935C1948.188,1286.146,1940.423,1293.212,1930.33,1294.369L1930.33,1294.369z M1911.463,1301.327
		c1.004,0,1.817,0.793,1.817,1.771c0,0.978-0.813,1.77-1.817,1.77s-1.817-0.792-1.817-1.77
		C1909.646,1302.12,1910.459,1301.327,1911.463,1301.327L1911.463,1301.327z M1917.248,1296.923c-1.666,0-3.016,1.316-3.016,2.939
		c0,1.624,1.35,2.939,3.016,2.939s3.018-1.315,3.018-2.939C1920.266,1298.239,1918.914,1296.923,1917.248,1296.923
		L1917.248,1296.923z M1940.216,1267.955c-3.242-2.643-7.767-4.277-12.804-4.277s-9.561,1.635-12.803,4.278
		c-3.071,2.503-4.972,5.917-4.972,9.646s1.9,7.143,4.972,9.646c3.242,2.643,7.766,4.278,12.803,4.278s9.562-1.635,12.804-4.278
		c3.072-2.503,4.972-5.917,4.972-9.646S1943.288,1270.458,1940.216,1267.955z"/>
</g>
<g>
	<circle fill-rule="evenodd" clip-rule="evenodd" fill="#A3A5B2" cx="956.357" cy="1693.967" r="12.26"/>
	<path fill-rule="evenodd" clip-rule="evenodd" fill="#A3A5B2" d="M971.621,1728.002c1.182-1.85,2.06-3.637,2.06-4.904l0.001-5.996
		h-0.014c0-4.595,1.05-7.024,2.869-7.907c-1.841-2.688-4.741-4.601-8.086-5.122c-0.301,0.359-0.618,0.707-0.949,1.038
		c-2.852,2.852-6.793,4.616-11.145,4.616c-4.351,0-8.291-1.765-11.143-4.616c-0.332-0.331-0.648-0.679-0.95-1.038
		c-5.75,0.896-10.187,5.901-10.187,11.893v12.037h22.279H971.621z"/>
	<path fill-rule="evenodd" clip-rule="evenodd" fill="#A3A5B2" d="M992.452,1722.627c-1.743,19.098-15.284-24.233-15.284-5.525
		v5.996c-0.001,5.033-7.486,13.109-8.936,15.166c-0.537,0.762-0.943,1.928-1.091,3.277c1.739-0.632,3.616-0.977,5.574-0.977
		c4.509,0,8.591,1.828,11.545,4.782c1.781,1.781,3.152,3.973,3.962,6.42c5.719-0.144,11.283-0.903,14.382-2.483
		c-0.151-0.893-0.23-1.811-0.23-2.746c0-2.815,0.713-5.465,1.967-7.776C1001.695,1726.493,993.803,1707.822,992.452,1722.627z"/>
	<circle fill-rule="evenodd" clip-rule="evenodd" fill="#A3A5B2" cx="1054.768" cy="1720.956" r="12.827"/>
	<path fill-rule="evenodd" clip-rule="evenodd" fill="#A3A5B2" d="M1067.231,1731.502c-0.292,0.346-0.6,0.679-0.919,0.998
		c-2.954,2.955-7.036,4.783-11.545,4.783c-4.508,0-8.59-1.828-11.545-4.783c-0.319-0.319-0.627-0.652-0.919-0.998
		c-4.149,0.582-7.666,3.205-9.495,6.813c1.41,2.415,2.219,5.224,2.219,8.222c0,2.66-0.636,5.171-1.765,7.391
		c2.062,0.509,3.97,1.418,5.636,2.639h39.18v-12.594C1078.078,1737.639,1073.339,1732.359,1067.231,1731.502z"/>
	<circle fill-rule="evenodd" clip-rule="evenodd" fill="#A3A5B2" cx="1018.701" cy="1746.537" r="12.827"/>
	<path fill-rule="evenodd" clip-rule="evenodd" fill="#A3A5B2" d="M1031.164,1757.084c-0.292,0.345-0.599,0.678-0.919,0.998
		c-2.954,2.954-7.036,4.782-11.544,4.782c-4.509,0-8.591-1.828-11.545-4.782c-0.32-0.32-0.627-0.653-0.92-0.999
		c-5.982,0.839-10.651,5.923-10.84,12.083c2.564,2.854,4.13,6.623,4.13,10.742v2.239h42.484v-12.593
		C1042.011,1763.221,1037.271,1757.94,1031.164,1757.084z"/>
	<circle fill-rule="evenodd" clip-rule="evenodd" fill="#A3A5B2" cx="972.716" cy="1756.892" r="12.827"/>
	<path fill-rule="evenodd" clip-rule="evenodd" fill="#A3A5B2" d="M985.18,1767.438c-0.292,0.346-0.599,0.68-0.919,0.999
		c-2.954,2.954-7.036,4.782-11.545,4.782s-8.59-1.828-11.544-4.782c-0.32-0.319-0.628-0.653-0.92-0.999
		c-6.107,0.857-10.847,6.137-10.847,12.471v12.594h46.621v-12.594C996.026,1773.574,991.287,1768.295,985.18,1767.438z"/>
	<path fill-rule="evenodd" clip-rule="evenodd" fill="#A3A5B2" d="M974.791,1694.596l13.535-3.281
		c3.846,1.764,8.255,2.766,12.942,2.766c14.961,0,27.089-10.203,27.089-22.789s-12.128-22.789-27.089-22.789
		s-27.089,10.203-27.089,22.789c0,5.088,1.982,9.787,5.334,13.58L974.791,1694.596z M1011.338,1671.293
		c1.558,0,2.828,1.271,2.828,2.829c0,1.558-1.271,2.829-2.828,2.829c-1.559,0-2.83-1.271-2.83-2.829
		C1008.508,1672.563,1009.779,1671.293,1011.338,1671.293z M1000.987,1671.293c1.558,0,2.829,1.271,2.829,2.829
		c0,1.558-1.271,2.829-2.829,2.829s-2.829-1.271-2.829-2.829C998.158,1672.563,999.43,1671.293,1000.987,1671.293z
		 M990.637,1671.293c1.559,0,2.829,1.271,2.829,2.829c0,1.558-1.271,2.829-2.829,2.829s-2.829-1.271-2.829-2.829
		C987.808,1672.563,989.078,1671.293,990.637,1671.293z"/>
</g>
<path fill-rule="evenodd" clip-rule="evenodd" fill="#A3A5B2" d="M1866.773,1747.888c-0.072-0.692-0.108-1.396-0.108-2.108
	c0-5.613,2.275-10.695,5.954-14.375c5.589-5.588,23.291-16.182,30.543-21.141c7.588-5.188,0.853-16.729-7.664-11.815
	c-39.215,22.627-41.131,22.627-80.346,0c-8.516-4.913-15.251,6.628-7.663,11.815l25.254,17.267v20.357H1866.773z"/>
<path fill-rule="evenodd" clip-rule="evenodd" fill="#A3A5B2" d="M1855.326,1712.084c9.179,0,16.62-7.441,16.62-16.62
	s-7.441-16.62-16.62-16.62c-9.18,0-16.621,7.441-16.621,16.62S1846.146,1712.084,1855.326,1712.084z M1855.326,1700.534
	c2.753,0,4.986,1.763,4.986,3.937s-2.233,3.938-4.986,3.938c-2.754,0-4.986-1.764-4.986-3.938S1852.572,1700.534,1855.326,1700.534z
	"/>
<path fill-rule="evenodd" clip-rule="evenodd" fill="#A3A5B2" d="M1902.01,1759.484c-0.209,0.229-0.422,0.451-0.641,0.67
	c-3.679,3.68-8.762,5.955-14.375,5.955s-10.696-2.275-14.375-5.955c-0.219-0.219-0.432-0.441-0.641-0.67
	c-8.647,0.498-15.568,7.727-15.568,16.494v16.523h61.168v-16.523C1917.578,1767.211,1910.657,1759.982,1902.01,1759.484z"/>
<path fill-rule="evenodd" clip-rule="evenodd" fill="#A3A5B2" d="M1886.994,1728.949c-9.27,0-16.83,7.561-16.83,16.83
	s7.561,16.83,16.83,16.83s16.83-7.561,16.83-16.83S1896.264,1728.949,1886.994,1728.949z"/>
<ellipse fill-rule="evenodd" clip-rule="evenodd" fill="#A3A5B2" cx="1911.463" cy="1747.197" rx="1.817" ry="1.771"/>
<ellipse fill-rule="evenodd" clip-rule="evenodd" fill="#A3A5B2" cx="1917.248" cy="1743.961" rx="3.016" ry="2.939"/>
<path fill-rule="evenodd" clip-rule="evenodd" fill="#A3A5B2" d="M1878.484,1681.763l-1.284,9.91l12.729-7.358
	c12.254-0.09,22.156-8.473,22.156-18.801c0-10.385-10.007-18.803-22.352-18.803c-12.344,0-22.352,8.418-22.352,18.803
	C1867.383,1672.447,1871.845,1678.503,1878.484,1681.763z"/>
<g>
	<path fill-rule="evenodd" clip-rule="evenodd" fill="#C40001" d="M1927.399,1287.063c-0.512,0-0.96-0.168-1.342-0.499
		c-0.384-0.332-0.573-0.796-0.573-1.394c0-0.529,0.186-0.973,0.556-1.333c0.37-0.361,0.821-0.542,1.359-0.542
		c0.528,0,0.977,0.181,1.338,0.542c0.361,0.361,0.542,0.805,0.542,1.333c0,0.589-0.189,1.054-0.568,1.39
		C1928.333,1286.895,1927.898,1287.063,1927.399,1287.063z"/>
	<path fill-rule="evenodd" clip-rule="evenodd" fill="#C40001" d="M1921.584,1271.837c-0.117,0.369-0.176,0.737-0.176,1.104
		c0,0.14,0.029,0.275,0.088,0.404c0.063,0.14,0.162,0.277,0.293,0.412l0.001,0.001c0.125,0.131,0.264,0.228,0.415,0.29
		c0.151,0.063,0.321,0.094,0.51,0.094c0.307,0,0.56-0.086,0.759-0.261c0.219-0.191,0.391-0.491,0.516-0.899l0.003-0.009
		c0.16-0.486,0.34-0.913,0.537-1.279v0c0.203-0.379,0.429-0.701,0.674-0.962c0.27-0.288,0.607-0.502,1.014-0.641h0.002
		c0.388-0.133,0.838-0.199,1.352-0.199c0.445,0,0.854,0.067,1.228,0.202c0.377,0.135,0.713,0.338,1.008,0.608h0.002
		c0.593,0.547,0.89,1.223,0.89,2.02c0,0.208-0.025,0.411-0.074,0.606c-0.05,0.193-0.125,0.381-0.227,0.562
		c-0.091,0.163-0.194,0.321-0.311,0.473c-0.118,0.157-0.242,0.3-0.371,0.429c-0.118,0.118-0.283,0.273-0.493,0.465
		c-0.188,0.171-0.426,0.382-0.712,0.632l0.001,0c-0.315,0.277-0.593,0.529-0.827,0.753c-0.242,0.23-0.452,0.441-0.63,0.634
		c-0.171,0.184-0.321,0.38-0.454,0.588c-0.134,0.209-0.253,0.436-0.356,0.681c-0.099,0.233-0.174,0.491-0.224,0.772
		c-0.051,0.287-0.076,0.599-0.076,0.936c0,0.243,0.029,0.451,0.09,0.622c0.053,0.155,0.134,0.283,0.24,0.385v0.001
		c0.111,0.106,0.237,0.187,0.375,0.24c0.14,0.053,0.297,0.081,0.471,0.081c0.329,0,0.584-0.078,0.763-0.234l0.001,0.001
		c0.184-0.161,0.309-0.417,0.372-0.769l0.002-0.014c0.038-0.179,0.083-0.369,0.126-0.544c0.036-0.15,0.066-0.267,0.089-0.351
		l0.003-0.011c0.027-0.095,0.06-0.19,0.098-0.286v-0.001c0.037-0.09,0.08-0.185,0.131-0.282c0.049-0.099,0.113-0.202,0.19-0.311
		v-0.002c0.072-0.102,0.157-0.208,0.252-0.318c0.095-0.109,0.205-0.226,0.331-0.351c0.115-0.115,0.25-0.242,0.404-0.38
		c0.494-0.442,0.937-0.844,1.327-1.204c0.364-0.335,0.644-0.599,0.836-0.79l0.003-0.003c0.188-0.182,0.363-0.382,0.524-0.599
		c0.165-0.222,0.316-0.461,0.452-0.715c0.129-0.241,0.228-0.506,0.293-0.792c0.066-0.287,0.101-0.598,0.101-0.932
		c0-0.421-0.06-0.827-0.177-1.216c-0.119-0.393-0.296-0.768-0.53-1.124h-0.002c-0.237-0.362-0.524-0.687-0.858-0.971
		c-0.34-0.289-0.73-0.54-1.173-0.752c-0.445-0.216-0.926-0.377-1.439-0.485c-0.517-0.108-1.073-0.162-1.667-0.162
		c-0.639,0-1.232,0.064-1.784,0.193c-0.549,0.128-1.057,0.32-1.524,0.574l0.001,0.001c-0.472,0.258-0.886,0.55-1.241,0.873
		c-0.355,0.322-0.653,0.675-0.893,1.056l0.001,0C1921.887,1271.076,1921.703,1271.461,1921.584,1271.837z"/>
</g>
<path fill-rule="evenodd" clip-rule="evenodd" fill="#A3A5B2" d="M1927.412,1704.766c-11.474,0-20.774,7.582-20.774,16.935
	c0,7.042,5.274,13.08,12.778,15.634c0.068,2.388,2.534,4.307,5.567,4.307c2.534,0,4.672-1.34,5.347-3.174
	c10.093-1.156,17.857-8.222,17.857-16.767C1948.188,1712.348,1938.887,1704.766,1927.412,1704.766z M1928.711,1731.238
	c-0.378,0.335-0.813,0.503-1.312,0.503c-0.512,0-0.96-0.168-1.342-0.498c-0.384-0.332-0.573-0.797-0.573-1.395
	c0-0.529,0.186-0.973,0.556-1.334s0.821-0.542,1.359-0.542c0.528,0,0.977,0.181,1.338,0.542s0.542,0.805,0.542,1.334
	C1929.279,1730.438,1929.09,1730.903,1928.711,1731.238z M1933.316,1718.308c-0.065,0.286-0.164,0.551-0.293,0.792
	c-0.136,0.255-0.287,0.493-0.452,0.716c-0.161,0.217-0.337,0.416-0.524,0.599l-0.003,0.003c-0.192,0.191-0.472,0.455-0.836,0.79
	c-0.391,0.36-0.833,0.763-1.327,1.204c-0.154,0.139-0.289,0.265-0.404,0.38c-0.126,0.124-0.236,0.241-0.331,0.351
	s-0.18,0.217-0.252,0.318v0.002c-0.077,0.108-0.142,0.212-0.19,0.311c-0.051,0.098-0.094,0.191-0.131,0.281v0.002
	c-0.038,0.096-0.07,0.191-0.098,0.285l-0.003,0.012c-0.022,0.084-0.053,0.2-0.089,0.35c-0.043,0.176-0.088,0.365-0.126,0.545
	l-0.002,0.014c-0.063,0.352-0.188,0.607-0.372,0.768h-0.001c-0.179,0.156-0.434,0.233-0.763,0.233c-0.174,0-0.331-0.027-0.471-0.081
	c-0.138-0.053-0.264-0.134-0.375-0.24v-0.001c-0.106-0.103-0.188-0.23-0.24-0.386c-0.061-0.17-0.09-0.378-0.09-0.621
	c0-0.336,0.025-0.648,0.076-0.936c0.05-0.281,0.125-0.539,0.224-0.771c0.104-0.245,0.223-0.473,0.356-0.682
	c0.133-0.207,0.283-0.403,0.454-0.588c0.178-0.191,0.388-0.403,0.63-0.633c0.234-0.225,0.512-0.477,0.827-0.754h-0.001
	c0.286-0.25,0.524-0.461,0.712-0.633c0.21-0.191,0.375-0.347,0.493-0.465c0.129-0.129,0.253-0.271,0.371-0.429
	c0.116-0.151,0.22-0.31,0.311-0.474c0.102-0.18,0.177-0.368,0.227-0.562c0.049-0.196,0.074-0.398,0.074-0.606
	c0-0.797-0.297-1.473-0.89-2.02h-0.002c-0.295-0.271-0.631-0.474-1.008-0.609c-0.373-0.134-0.782-0.201-1.228-0.201
	c-0.514,0-0.964,0.066-1.352,0.199h-0.002c-0.406,0.139-0.744,0.354-1.014,0.641c-0.245,0.262-0.471,0.584-0.674,0.963
	c-0.197,0.366-0.377,0.793-0.537,1.279l-0.003,0.009c-0.125,0.408-0.297,0.708-0.516,0.899c-0.199,0.174-0.452,0.26-0.759,0.26
	c-0.188,0-0.358-0.03-0.51-0.094c-0.151-0.063-0.29-0.159-0.415-0.29l-0.001-0.001c-0.131-0.135-0.229-0.271-0.293-0.412
	c-0.059-0.129-0.088-0.265-0.088-0.404c0-0.367,0.059-0.735,0.176-1.104c0.119-0.377,0.303-0.762,0.546-1.153l-0.001-0.001
	c0.239-0.381,0.537-0.733,0.893-1.056c0.355-0.323,0.77-0.614,1.241-0.873l-0.001-0.001c0.468-0.254,0.976-0.445,1.524-0.574
	c0.552-0.129,1.146-0.193,1.784-0.193c0.594,0,1.15,0.055,1.667,0.162c0.514,0.107,0.994,0.27,1.439,0.484
	c0.442,0.213,0.833,0.464,1.173,0.752c0.334,0.285,0.621,0.609,0.858,0.971h0.002c0.234,0.356,0.411,0.732,0.53,1.125
	c0.117,0.389,0.177,0.795,0.177,1.216C1933.417,1717.709,1933.383,1718.021,1933.316,1718.308z"/>
</svg>
